<?xml version="1.0" encoding="UTF-8"?>
<!-- Generator: Adobe Illustrator 19.0.0, SVG Export Plug-In . SVG Version: 6.00 Build 0)  -->
<svg enable-background="new 0 0 330 330" version="1.1" viewBox="0 0 330 330" xml:space="preserve" xmlns="http://www.w3.org/2000/svg">
<g id="XMLID_233_" fill="#fff">
	<path id="XMLID_235_" d="M315,0H15C6.716,0,0,6.716,0,15v300c0,8.284,6.716,15,15,15h300c8.284,0,15-6.716,15-15V15   C330,6.716,323.284,0,315,0z M300,300H30V30h270V300z"/>
	<path id="XMLID_238_" d="m104.25 238.25h121.5c8.284 0 15-6.716 15-15s-6.716-15-15-15h-121.5c-8.284 0-15 6.716-15 15s6.716 15 15 15z"/>
	<path id="XMLID_239_" d="m104.25 178.25h121.5c6e-3 -1e-3 0.013-1e-3 0.02 0 8.284 0 15-6.716 15-15 0-3.774-1.394-7.222-3.694-9.858l-60.329-75.97c-2.846-3.583-7.171-5.672-11.747-5.672s-8.901 2.088-11.747 5.672l-60.75 76.5c-3.58 4.508-4.264 10.666-1.761 15.85s7.752 8.478 13.508 8.478z"/>
</g>















</svg>
