<?xml version="1.0" encoding="UTF-8" standalone="no"?>
<!-- Created with Inkscape (http://www.inkscape.org/) -->

<svg
   width="1728.2441"
   height="437.55914"
   id="svg2"
   version="1.1"
   inkscape:version="1.2 (56b05e47e7, 2022-06-09, custom)"
   sodipodi:docname="mediogüevo.svg"
   xmlns:inkscape="http://www.inkscape.org/namespaces/inkscape"
   xmlns:sodipodi="http://sodipodi.sourceforge.net/DTD/sodipodi-0.dtd"
   xmlns="http://www.w3.org/2000/svg"
   xmlns:svg="http://www.w3.org/2000/svg"
   xmlns:rdf="http://www.w3.org/1999/02/22-rdf-syntax-ns#"
   xmlns:cc="http://creativecommons.org/ns#"
   xmlns:dc="http://purl.org/dc/elements/1.1/">
  <defs
     id="defs4">
    <linearGradient
       id="linearGradient4085">
      <stop
         style="stop-color:#fff493;stop-opacity:1;"
         offset="0"
         id="stop4087" />
      <stop
         style="stop-color:#ffffff;stop-opacity:1;"
         offset="1"
         id="stop4089" />
    </linearGradient>
    <inkscape:path-effect
       effect="spiro"
       id="path-effect3036"
       is_visible="true"
       lpeversion="0" />
  </defs>
  <sodipodi:namedview
     id="base"
     pagecolor="#ffffff"
     bordercolor="#666666"
     borderopacity="1.0"
     inkscape:pageopacity="1"
     inkscape:pageshadow="2"
     inkscape:zoom="0.2716303"
     inkscape:cx="541.17674"
     inkscape:cy="93.877599"
     inkscape:document-units="px"
     inkscape:current-layer="layer1"
     showgrid="false"
     inkscape:window-width="1366"
     inkscape:window-height="704"
     inkscape:window-x="0"
     inkscape:window-y="0"
     inkscape:window-maximized="1"
     fit-margin-top="0"
     fit-margin-left="0"
     fit-margin-right="0"
     fit-margin-bottom="0"
     showguides="false"
     inkscape:guide-bbox="true"
     inkscape:snap-global="false"
     showborder="false"
     inkscape:showpageshadow="2"
     inkscape:pagecheckerboard="0"
     inkscape:deskcolor="#d1d1d1">
    <sodipodi:guide
       orientation="0,1"
       position="-1127.9068,17.599009"
       id="guide3976"
       inkscape:locked="false" />
    <sodipodi:guide
       orientation="1,0"
       position="-2159.3683,119.7239"
       id="guide3984"
       inkscape:locked="false" />
    <sodipodi:guide
       orientation="1,0"
       position="-1177.2671,89.086383"
       id="guide3986"
       inkscape:locked="false" />
    <sodipodi:guide
       orientation="0,1"
       position="622.01181,-727.56557"
       id="guide4126"
       inkscape:locked="false" />
    <sodipodi:guide
       orientation="0,1"
       position="608.04491,-890.02249"
       id="guide4128"
       inkscape:locked="false" />
    <sodipodi:guide
       orientation="1,0"
       position="762.08159,1323.1534"
       id="guide4231"
       inkscape:locked="false" />
    <sodipodi:guide
       orientation="1,0"
       position="5.1553534,159.2326"
       id="guide4346"
       inkscape:locked="false" />
  </sodipodi:namedview>
  <metadata
     id="metadata7">
    <rdf:RDF>
      <cc:Work
         rdf:about="">
        <dc:format>image/svg+xml</dc:format>
        <dc:type
           rdf:resource="http://purl.org/dc/dcmitype/StillImage" />
        <dc:title />
      </cc:Work>
    </rdf:RDF>
  </metadata>
  <g
     inkscape:label="Capa 1"
     inkscape:groupmode="layer"
     id="layer1"
     transform="translate(-1519.3402,-654.04912)">
    <flowRoot
       xml:space="preserve"
       id="flowRoot3010"
       style="font-style:normal;font-weight:normal;font-size:13.6533px;line-height:0.01%;font-family:sans-serif;letter-spacing:0px;word-spacing:0px;fill:#000000;fill-opacity:1;stroke:none;stroke-width:1.13778"><flowRegion
         id="flowRegion3012"
         style="font-family:sans-serif;stroke-width:1.13778"><rect
           id="rect3014"
           width="1188.614"
           height="286.95706"
           x="-436.99045"
           y="187.9064"
           style="font-family:sans-serif;stroke-width:1.29454" /></flowRegion><flowPara
         id="flowPara3016"
         style="font-size:45.5111px;line-height:1.25;font-family:sans-serif;stroke-width:1.13778"> </flowPara></flowRoot>
    <ellipse
       style="color:#000000;display:inline;overflow:visible;visibility:visible;fill:#000000;fill-opacity:1;fill-rule:nonzero;stroke:none;stroke-width:10.7445;marker:none;enable-background:accumulate"
       id="path4191"
       cx="2270.2036"
       cy="932.09454"
       rx="120.22322"
       ry="39.925907"
       inkscape:export-filename="../1af52fd9/logo.png"
       inkscape:export-xdpi="300"
       inkscape:export-ydpi="300" />
    <path
       sodipodi:nodetypes="zzszz"
       inkscape:connector-curvature="0"
       id="path4193"
       d="m 2251.5274,658.1802 c -65.0244,0 -133.2089,82.48741 -133.2089,182.66863 0,100.1811 62.1338,128.68084 133.2089,128.68084 95.3208,0 113.7958,-64.14597 113.7958,-128.68084 0,-64.53498 -48.7713,-182.66863 -113.7958,-182.66863 z"
       style="color:#000000;display:inline;overflow:visible;visibility:visible;fill:#ffffff;fill-opacity:1;fill-rule:nonzero;stroke:#000000;stroke-width:8.26215;stroke-linecap:round;stroke-linejoin:round;stroke-miterlimit:4;stroke-dasharray:none;stroke-dashoffset:0;stroke-opacity:1;marker:none;enable-background:accumulate" />
    <ellipse
       id="path4195"
       style="color:#000000;display:inline;overflow:visible;visibility:visible;fill:#ffeb00;fill-opacity:1;fill-rule:nonzero;stroke:none;stroke-width:3.53738;marker:none;enable-background:accumulate"
       cx="2265.6841"
       cy="856.79224"
       rx="73.929192"
       ry="83.047989" />
    <g
       transform="matrix(0.9434127,0,0,0.9434127,2750.8177,-2265.8294)"
       id="g4197">
      <path
         sodipodi:type="inkscape:offset"
         inkscape:radius="9.61238"
         inkscape:original="M 527.875 2630.6562 C 520.31657 2630.6564 514.33062 2632.5976 509.90625 2636.4688 C 505.4818 2640.3403 503.24997 2645.5824 503.25 2652.2188 C 503.24997 2662.9113 509.52662 2668.2502 522.0625 2668.25 C 530.17387 2668.2502 536.35362 2666.2434 540.59375 2662.1875 C 544.83374 2657.9477 546.93742 2652.7712 546.9375 2646.6875 C 546.93742 2641.8946 545.38388 2638.0435 542.25 2635.0938 C 539.30032 2632.1444 534.51156 2630.6565 527.875 2630.6562 z M 590.90625 2630.6562 C 583.34776 2630.6564 577.36181 2632.5976 572.9375 2636.4688 C 568.51298 2640.3403 566.3124 2645.5824 566.3125 2652.2188 C 566.3124 2662.9113 572.58905 2668.2502 585.125 2668.25 C 593.2363 2668.2502 599.3848 2666.2434 603.625 2662.1875 C 607.86492 2657.9477 609.99986 2652.7712 610 2646.6875 C 609.99986 2641.8946 608.44632 2638.0435 605.3125 2635.0938 C 602.36275 2632.1444 597.54274 2630.6565 590.90625 2630.6562 z M 374.5625 2681 C 361.2892 2681.0002 350.41758 2683.7508 341.9375 2689.2812 C 333.45734 2694.6276 326.72744 2701.4544 321.75 2709.75 C 316.95687 2718.0459 313.62474 2727.1701 311.78125 2737.125 C 309.93773 2746.8956 309.03124 2756.2137 309.03125 2765.0625 C 309.03124 2775.9392 310.22843 2785.323 312.625 2793.25 C 315.2059 2800.9928 318.70057 2807.4632 323.125 2812.625 C 327.54939 2817.7868 332.8883 2821.541 339.15625 2823.9375 C 345.42413 2826.3341 352.34782 2827.5312 359.90625 2827.5312 C 369.86111 2827.5312 378.14455 2825.6214 384.78125 2821.75 C 391.41778 2817.6943 397.04738 2811.5145 401.65625 2803.2188 C 401.65614 2819.9947 399.16486 2832.8075 394.1875 2841.6562 C 389.39429 2850.6894 380.91706 2855.1874 368.75 2855.1875 C 361.74461 2855.1874 356.5995 2854.281 353.28125 2852.4375 C 349.96289 2850.594 347.37471 2848.459 345.53125 2846.0625 C 343.6877 2843.8503 342.00602 2841.8435 340.53125 2840 C 339.05641 2838.1565 336.75893 2837.2188 333.625 2837.2188 C 331.04406 2837.2188 328.29333 2837.6064 325.34375 2838.3438 C 322.57846 2839.2654 319.99029 2840.5284 317.59375 2842.1875 C 315.19718 2843.8467 313.25604 2845.9816 311.78125 2848.5625 C 310.30643 2851.1434 309.56249 2854.1848 309.5625 2857.6875 C 309.56249 2861.5588 310.75968 2865.4411 313.15625 2869.3125 C 315.73714 2873.1838 319.42562 2876.5818 324.21875 2879.5312 C 329.01184 2882.6651 335.02904 2885.1565 342.21875 2887 C 349.59272 2888.8435 358.16686 2889.7499 367.9375 2889.75 C 380.84196 2889.7499 391.71358 2888.3902 400.5625 2885.625 C 409.59557 2882.8597 416.97251 2879.1712 422.6875 2874.5625 C 428.40224 2869.9537 432.80341 2864.6805 435.9375 2858.7812 C 439.07132 2852.8821 441.30315 2846.7991 442.59375 2840.5312 C 443.88406 2834.2634 445.08125 2826.9833 446.1875 2818.6875 C 447.29346 2810.3918 448.29685 2801.7207 449.21875 2792.6875 C 450.14035 2783.6544 450.9812 2774.7239 451.71875 2765.875 C 452.456 2756.8419 453.00614 2748.6553 453.375 2741.2812 C 453.92789 2733.9073 454.28425 2727.6306 454.46875 2722.4688 C 454.65298 2717.1226 454.74984 2713.6937 454.75 2712.2188 C 454.74984 2701.1579 452.54927 2693.7153 448.125 2689.8438 C 443.8848 2685.7881 436.96109 2683.7501 427.375 2683.75 L 414.65625 2683.75 C 412.44393 2683.7501 411.24674 2684.6881 411.0625 2686.5312 C 411.06239 2687.0844 410.9655 2688.3473 410.78125 2690.375 C 410.78114 2692.2186 410.68425 2694.1598 410.5 2696.1875 C 410.31553 2698.2155 410.15299 2700.0596 409.96875 2701.7188 C 409.96864 2703.1935 409.96864 2703.8408 409.96875 2703.6562 C 409.04689 2700.5224 407.6559 2697.5779 405.8125 2694.8125 C 404.15325 2692.0474 401.85575 2689.653 398.90625 2687.625 C 396.14089 2685.5973 392.71187 2684.0125 388.65625 2682.9062 C 384.7848 2681.6159 380.09294 2681.0002 374.5625 2681 z M 723.53125 2681 C 711.54838 2681.0002 701.22691 2682.6505 692.5625 2685.9688 C 683.89797 2689.2872 676.52103 2693.6226 670.4375 2698.9688 C 664.3539 2704.3151 659.40259 2710.398 655.53125 2717.2188 C 651.84422 2723.8555 648.86844 2730.5854 646.65625 2737.4062 C 644.62838 2744.2274 643.26864 2750.8603 642.53125 2757.3125 C 641.79384 2763.7648 641.40624 2769.2976 641.40625 2773.9062 C 641.40624 2786.4421 643.44428 2796.8605 647.5 2805.1562 C 651.5557 2813.452 656.70081 2820.0851 662.96875 2825.0625 C 669.42099 2830.04 676.63538 2833.5347 684.5625 2835.5625 C 692.67387 2837.5904 700.76351 2838.5938 708.875 2838.5938 C 714.95849 2838.5938 721.23514 2838.0436 727.6875 2836.9375 C 734.13967 2835.8314 739.96307 2834.0841 745.125 2831.6875 C 750.47105 2829.291 754.77532 2826.1526 758.09375 2822.2812 C 761.41194 2818.41 763.09362 2813.8148 763.09375 2808.4688 C 763.09362 2804.4131 762.15588 2801.081 760.3125 2798.5 C 758.46887 2795.9192 756.36518 2793.9123 753.96875 2792.4375 C 751.57207 2790.9627 749.17769 2790.0249 746.78125 2789.6562 C 744.56893 2789.1033 742.98414 2788.8438 742.0625 2788.8438 C 740.03454 2788.8439 738.3841 2789.6533 737.09375 2791.3125 C 735.98754 2792.7873 734.59655 2794.5346 732.9375 2796.5625 C 731.27825 2798.406 729.07766 2800.1534 726.3125 2801.8125 C 723.7315 2803.2874 720.04303 2804.0312 715.25 2804.0312 C 710.45681 2804.0312 706.41199 2803.2217 703.09375 2801.5625 C 699.77537 2799.9034 697.09029 2797.7685 695.0625 2795.1875 C 693.03458 2792.6067 691.48105 2789.6619 690.375 2786.3438 C 689.45319 2782.8412 688.96869 2779.3465 688.96875 2775.8438 C 691.9183 2775.8439 696.06002 2775.7468 701.40625 2775.5625 C 706.93669 2775.1938 712.9539 2774.4497 719.40625 2773.3438 C 725.85843 2772.0534 732.39453 2770.3061 739.03125 2768.0938 C 745.66776 2765.8816 751.65371 2762.8403 757 2758.9688 C 762.53039 2754.9131 766.9628 2749.9307 770.28125 2744.0312 C 773.78377 2738.1321 775.53111 2730.9488 775.53125 2722.4688 C 775.53111 2716.7539 774.59336 2711.4151 772.75 2706.4375 C 770.90636 2701.4602 767.96183 2697.1246 763.90625 2693.4375 C 759.85041 2689.5663 754.51151 2686.5249 747.875 2684.3125 C 741.23828 2682.1005 733.11738 2681.0002 723.53125 2681 z M 1021.4688 2681 C 1006.9079 2681.3026 994.61775 2683.8798 984.59375 2688.7188 C 974.08572 2693.6964 965.57724 2700.3294 959.125 2708.625 C 952.67271 2716.9209 948.07775 2726.4327 945.3125 2737.125 C 942.73159 2747.633 941.43749 2758.4077 941.4375 2769.4688 C 941.43749 2779.055 942.44088 2788.0824 944.46875 2796.5625 C 946.49659 2804.8583 950.02252 2812.1384 955 2818.4062 C 959.97744 2824.6743 966.61044 2829.6567 974.90625 2833.3438 C 983.38633 2836.8465 993.96725 2838.5938 1006.6875 2838.5938 C 1018.3015 2838.5938 1028.3634 2837.1371 1036.8438 2834.1875 C 1045.508 2831.2379 1052.8851 2827.2587 1058.9688 2822.2812 C 1065.0521 2817.3038 1070.0349 2811.6085 1073.9062 2805.1562 C 1077.9618 2798.704 1081.1001 2792.071 1083.3125 2785.25 C 1085.7089 2778.4291 1087.2624 2771.6022 1088 2764.7812 C 1088.9216 2757.776 1089.3748 2751.4024 1089.375 2745.6875 C 1089.3748 2725.2247 1084.3266 2709.3705 1074.1875 2698.125 C 1064.2324 2686.6954 1047.6344 2681.0002 1024.4062 2681 C 1023.4154 2681 1022.4395 2680.98 1021.4688 2681 z M 494.6875 2683.75 C 492.10656 2683.7501 490.26233 2684.3972 489.15625 2685.6875 C 488.05012 2686.7938 487.30618 2688.9943 486.9375 2692.3125 C 486.75313 2694.5248 486.39678 2698.2133 485.84375 2703.375 C 485.47503 2708.537 485.02178 2714.5228 484.46875 2721.3438 C 484.10003 2728.1649 483.61553 2735.4761 483.0625 2743.2188 C 482.50943 2750.7773 481.95929 2757.9604 481.40625 2764.7812 C 481.03754 2771.6022 480.68119 2777.782 480.3125 2783.3125 C 480.12817 2788.6587 480.03124 2792.5098 480.03125 2794.9062 C 480.03124 2800.9898 481.03463 2806.7164 483.0625 2812.0625 C 485.09034 2817.4087 487.96922 2822.0037 491.65625 2825.875 C 495.52759 2829.7464 500.21945 2832.8846 505.75 2835.2812 C 511.28048 2837.4934 517.55712 2838.5938 524.5625 2838.5938 C 528.24945 2838.5938 532.00357 2838.1404 535.875 2837.2188 C 539.74629 2836.4814 543.53166 2835.1872 547.21875 2833.3438 C 550.90568 2831.3158 554.4316 2828.6622 557.75 2825.3438 C 561.25257 2822.0255 564.35964 2817.9494 567.125 2813.1562 C 567.30925 2816.1058 567.8594 2818.9848 568.78125 2821.75 C 569.7029 2824.5153 571.28769 2826.9096 573.5 2828.9375 C 575.7121 2830.9653 578.55973 2832.6157 582.0625 2833.9062 C 585.74939 2835.1966 590.37561 2835.8438 595.90625 2835.8438 L 606.6875 2835.8438 C 609.26827 2835.8438 610.72491 2835.456 611.09375 2834.7188 C 611.64666 2833.9812 612.13116 2831.6838 612.5 2827.8125 C 613.97466 2807.5339 615.17185 2790.5795 616.09375 2776.9375 C 617.1997 2763.1113 618.1062 2751.7864 618.84375 2742.9375 C 619.581 2733.9044 620.03425 2726.8839 620.21875 2721.9062 C 620.5873 2716.7445 620.7811 2712.7967 620.78125 2710.0312 C 620.7811 2705.7913 620.32785 2702.1028 619.40625 2698.9688 C 618.6687 2695.6505 617.18081 2692.8687 614.96875 2690.6562 C 612.94075 2688.4444 610.09312 2686.7938 606.40625 2685.6875 C 602.90345 2684.3972 598.27724 2683.7501 592.5625 2683.75 L 582.625 2683.75 C 580.59703 2683.7501 579.10914 2684.3003 578.1875 2685.4062 C 577.26564 2686.5125 576.71549 2687.8065 576.53125 2689.2812 C 575.97809 2694.9963 575.42794 2701.8231 574.875 2709.75 C 574.50619 2717.4929 573.95605 2725.5168 573.21875 2733.8125 C 572.66559 2742.1083 571.7591 2750.2949 570.46875 2758.4062 C 569.17819 2766.5177 567.39961 2773.7978 565.1875 2780.25 C 563.15955 2786.518 560.40882 2791.6943 556.90625 2795.75 C 553.58785 2799.6214 549.44613 2801.5626 544.46875 2801.5625 C 538.75381 2801.5626 534.22449 2799.7841 530.90625 2796.2812 C 527.77222 2792.5943 526.2187 2787.5459 526.21875 2781.0938 C 526.2187 2778.1442 526.47814 2773.3555 527.03125 2766.7188 C 527.76859 2760.0822 528.41564 2752.9647 528.96875 2745.4062 C 529.70609 2737.8479 530.35313 2730.5679 530.90625 2723.5625 C 531.64358 2716.5573 532.03118 2711.1215 532.03125 2707.25 C 532.03118 2703.5631 531.54669 2700.3279 530.625 2697.5625 C 529.88753 2694.613 528.4309 2692.153 526.21875 2690.125 C 524.19084 2688.0973 521.31196 2686.5125 517.625 2685.4062 C 513.93794 2684.3003 509.24608 2683.7501 503.53125 2683.75 L 494.6875 2683.75 z M 792.1875 2683.75 C 789.60658 2683.7501 787.5029 2684.494 785.84375 2685.9688 C 784.18459 2687.4437 783.24685 2688.8347 783.0625 2690.125 C 783.0625 2690.4938 783.25629 2691.2065 783.625 2692.3125 C 783.99369 2693.2344 784.64074 2695.1755 785.5625 2698.125 C 786.48424 2700.8904 787.77834 2704.9664 789.4375 2710.3125 C 791.09665 2715.4744 793.29723 2722.4638 796.0625 2731.3125 C 798.82774 2740.1615 802.15986 2751.2269 806.03125 2764.5 C 810.08693 2777.589 814.7788 2793.3464 820.125 2811.7812 C 821.04671 2814.9154 822.0501 2817.9567 823.15625 2820.9062 C 824.26231 2823.6717 825.6533 2826.1628 827.3125 2828.375 C 828.97161 2830.5872 831.00964 2832.4316 833.40625 2833.9062 C 835.9871 2835.1966 839.19108 2835.8438 843.0625 2835.8438 L 867.6875 2835.8438 C 870.26832 2835.8438 872.11256 2835.6499 873.21875 2835.2812 C 874.32476 2834.9127 875.61885 2833.7154 877.09375 2831.6875 C 878.75281 2829.1066 881.30974 2824.6085 884.8125 2818.1562 C 888.31505 2811.5197 892.10043 2803.852 896.15625 2795.1875 C 900.21185 2786.5231 904.35356 2777.3021 908.59375 2767.5312 C 913.01803 2757.7609 916.9972 2748.4425 920.5 2739.5938 C 924.00251 2730.5606 926.85015 2722.5679 929.0625 2715.5625 C 931.27456 2708.5573 932.37485 2703.4778 932.375 2700.3438 C 932.37485 2696.4725 930.72442 2693.4311 927.40625 2691.2188 C 924.27215 2689.0066 920.48678 2687.3563 916.0625 2686.25 C 911.63796 2685.144 907.13989 2684.497 902.53125 2684.3125 C 897.92237 2684.128 894.2339 2684.0314 891.46875 2684.0312 C 887.78163 2684.0314 885.38725 2684.4846 884.28125 2685.4062 C 883.17504 2686.1438 882.3342 2687.7942 881.78125 2690.375 C 878.6472 2703.464 875.89646 2715.1765 873.5 2725.5 C 871.2877 2735.6394 869.15277 2745.0542 867.125 2753.7188 C 865.28141 2762.1989 863.34027 2770.223 861.3125 2777.7812 C 859.46891 2785.3396 857.46214 2792.976 855.25 2800.7188 C 854.51253 2796.2944 853.67168 2791.0523 852.75 2784.9688 C 852.01253 2778.8852 851.17168 2772.6086 850.25 2766.1562 C 849.51253 2759.5197 848.70294 2752.9835 847.78125 2746.5312 C 846.85943 2739.8947 846.01859 2733.9087 845.28125 2728.5625 C 844.72813 2723.0321 844.17799 2718.309 843.625 2714.4375 C 843.07189 2710.5663 842.71554 2707.9781 842.53125 2706.6875 C 841.60944 2701.8945 840.02465 2698.0435 837.8125 2695.0938 C 835.78459 2692.1442 832.74317 2689.8468 828.6875 2688.1875 C 824.8161 2686.5285 819.83353 2685.3969 813.75 2684.8438 C 807.85076 2684.1065 800.66761 2683.7501 792.1875 2683.75 z M 387 2717.75 C 393.82088 2717.7501 398.90034 2720.1445 402.21875 2724.9375 C 405.7213 2729.5464 407.46864 2737.4079 407.46875 2748.4688 C 407.46864 2751.9715 407.17795 2756.1133 406.625 2760.9062 C 406.07184 2765.6995 404.77775 2770.2943 402.75 2774.7188 C 400.72204 2779.1431 397.77751 2782.9286 393.90625 2786.0625 C 390.21915 2789.1965 385.07403 2790.7814 378.4375 2790.7812 C 370.87905 2790.7814 365.54015 2788.5494 362.40625 2784.125 C 359.27223 2779.5163 357.68744 2772.5926 357.6875 2763.375 C 357.68744 2760.6099 357.97814 2756.7589 358.53125 2751.7812 C 359.08424 2746.6195 360.28143 2741.5401 362.125 2736.5625 C 364.15279 2731.4008 367.09732 2726.9685 370.96875 2723.2812 C 374.84003 2719.5945 380.17895 2717.7501 387 2717.75 z M 714.15625 2717.75 C 718.94928 2717.7501 722.44395 2719.238 724.65625 2722.1875 C 727.05272 2725.1372 728.24991 2728.4694 728.25 2732.1562 C 728.24991 2738.9774 724.65833 2744.2193 717.46875 2747.9062 C 710.46335 2751.5934 701.24217 2753.5344 689.8125 2753.7188 C 690.3655 2749.8475 691.10944 2745.7713 692.03125 2741.5312 C 693.13729 2737.2913 694.59393 2733.4403 696.4375 2729.9375 C 698.46529 2726.4349 700.85967 2723.556 703.625 2721.3438 C 706.57454 2718.9473 710.10046 2717.7501 714.15625 2717.75 z M 1019.6875 2717.75 C 1027.9832 2717.7501 1033.8066 2720.4352 1037.125 2725.7812 C 1040.6275 2730.9432 1042.3749 2738.1264 1042.375 2747.3438 C 1042.3749 2751.584 1041.9216 2756.8572 1041 2763.125 C 1040.2625 2769.393 1038.6778 2775.3789 1036.2812 2781.0938 C 1034.069 2786.8086 1030.865 2791.6943 1026.625 2795.75 C 1022.5692 2799.8057 1017.2958 2801.8126 1010.8438 2801.8125 C 1003.654 2801.8126 998.12129 2798.9649 994.25 2793.25 C 990.37858 2787.5352 988.43745 2778.6047 988.4375 2766.4375 C 988.43745 2762.5662 988.72814 2757.8744 989.28125 2752.3438 C 990.01859 2746.6289 991.40958 2741.259 993.4375 2736.2812 C 995.64964 2731.1195 998.78792 2726.7841 1002.8438 2723.2812 C 1007.0837 2719.5945 1012.6821 2717.7501 1019.6875 2717.75 z "
         style="font-style:normal;font-variant:normal;font-weight:normal;font-stretch:normal;font-size:276.526px;line-height:125%;font-family:'Poetsen One';-inkscape-font-specification:'Poetsen One';text-align:start;letter-spacing:0px;word-spacing:0px;writing-mode:lr-tb;text-anchor:start;fill:#000000;fill-opacity:1;stroke:none"
         id="path4199"
         d="m 527.875,2621.043 c -9.2041,2e-4 -17.83934,2.5395 -24.29883,8.1914 -6.45497,5.6482 -9.93949,14.1928 -9.93945,22.9844 -2e-5,7.2271 2.5416,14.6212 8.08594,19.3437 1.25257,1.0669 2.61104,1.9255 4.01562,2.6895 -0.75856,-0.018 -1.42441,-0.1153 -2.20703,-0.1153 h -8.84375 c -4.1012,2e-4 -9.09092,1.1913 -12.5918,5.084 -3.78749,3.9746 -4.24985,7.8813 -4.71093,12.0313 a 9.6133413,9.6133413 0 0 0 -0.0274,0.2617 c -0.17267,2.0719 -0.52431,5.7236 -1.07226,10.8379 a 9.6133413,9.6133413 0 0 0 -0.0293,0.3379 c -0.36646,5.1303 -0.81658,11.0857 -1.36719,17.8769 a 9.6133413,9.6133413 0 0 0 -0.0176,0.2578 c -0.3642,6.7376 -0.84566,13.9973 -1.39648,21.709 -0.55115,7.5318 -1.09823,14.6849 -1.64844,21.4707 a 9.6133413,9.6133413 0 0 0 -0.0176,0.2578 c -0.36758,6.8002 -0.72347,12.9457 -1.08789,18.4121 a 9.6133413,9.6133413 0 0 0 -0.0156,0.3067 c -0.18581,5.3891 -0.28712,9.2701 -0.28711,11.9257 -1e-5,7.1406 1.19399,14.0732 3.65625,20.5645 2.45001,6.4592 6.03768,12.2207 10.62109,17.0332 a 9.6133413,9.6133413 0 0 0 0.16407,0.168 c 4.78062,4.7807 10.5487,8.6044 17.06835,11.4297 a 9.6133413,9.6133413 0 0 0 0.25196,0.1054 c 6.83842,2.7354 14.37083,4 22.38281,4 4.39144,0 8.8284,-0.5499 13.28516,-1.5918 4.70863,-0.9142 9.29338,-2.4857 13.66992,-4.6738 a 9.6133413,9.6133413 0 0 0 0.33398,-0.1758 c 4.34208,-2.3883 8.42439,-5.4936 12.20899,-9.1992 0.93538,1.198 1.8303,2.4368 2.94336,3.457 3.32603,3.049 7.32473,5.277 11.73632,6.9024 a 9.6133413,9.6133413 0 0 0 0.14649,0.053 c 5.10742,1.7876 10.73899,2.4785 17.01953,2.4785 h 10.78125 c 1.77185,0 3.40287,-0.068 5.43359,-0.5918 1.89137,-0.488 4.9261,-1.5234 7.07422,-5.1172 1.66366,-2.487 1.77396,-3.8543 2.08594,-5.373 0.34764,-1.6922 0.58203,-3.4979 0.78711,-5.6504 a 9.6133413,9.6133413 0 0 0 0.0195,-0.2148 c 1.47208,-20.2432 2.66523,-37.157 3.58789,-50.8067 1.10593,-13.8259 2.01273,-25.1447 2.74805,-33.9668 a 9.6133413,9.6133413 0 0 0 0,-0.017 c 0.73991,-9.0658 1.19696,-16.1186 1.39258,-21.336 0.3647,-5.1446 0.57795,-9.1905 0.57812,-12.3516 -1.7e-4,-4.8277 -0.50959,-9.3101 -1.71289,-13.5117 -1.10594,-4.6746 -3.41246,-9.0731 -6.7793,-12.5 -3.36026,-3.599 -7.73305,-5.9604 -12.45703,-7.4199 -2.5293,-0.9072 -5.18481,-1.5338 -8.00781,-1.916 3.23874,-1.3761 6.2777,-3.1075 8.83203,-5.5508 a 9.6133413,9.6133413 0 0 0 0.15235,-0.1484 c 5.86532,-5.8652 9.19121,-13.9645 9.1914,-22.2969 -2e-4,-6.8172 -2.66544,-13.7495 -7.61133,-18.4727 -5.50124,-5.4311 -13.07075,-7.1715 -21.0957,-7.1718 -9.20415,2e-4 -17.83936,2.5394 -24.29883,8.1914 -6.47195,5.663 -9.90833,14.2229 -9.9082,22.9844 -7e-5,7.2271 2.54159,14.6212 8.08594,19.3437 2.7699,2.3593 5.94417,3.931 9.3789,4.916 -1.21908,0.7332 -2.38333,1.5999 -3.36133,2.7735 -2.07765,2.4933 -3.42024,5.7138 -3.81054,8.8378 a 9.6133413,9.6133413 0 0 0 -0.0293,0.2657 c -0.565,5.8374 -1.12065,12.7403 -1.67773,20.7265 a 9.6133413,9.6133413 0 0 0 -0.0117,0.211 c -0.36221,7.6043 -0.90267,15.4967 -1.62891,23.6679 a 9.6133413,9.6133413 0 0 0 -0.0176,0.2129 c -0.53471,8.0191 -1.40796,15.9126 -2.65039,23.7227 -1.21546,7.6395 -2.87747,14.3872 -4.88281,20.2363 a 9.6133413,9.6133413 0 0 0 -0.0527,0.1582 c -1.72141,5.3205 -3.92482,9.298 -6.41016,12.1758 a 9.6133413,9.6133413 0 0 0 -0.0234,0.027 c -1.77969,2.0763 -2.66064,2.4552 -5.13867,2.4551 -3.54766,1e-4 -4.9873,-0.7456 -6.35742,-2.1211 -1.27718,-1.5885 -2.27934,-3.9972 -2.2793,-8.7343 -4e-5,-2.3858 0.23731,-7.073 0.7793,-13.5762 l -0.0273,0.2617 c 0.75248,-6.7728 1.40983,-14.0072 1.97071,-21.6719 l -0.0195,0.2324 c 0.73406,-7.5247 1.37757,-14.7748 1.93164,-21.7714 l 0.002,-0.033 c 0.75209,-7.1517 1.1757,-12.7809 1.17578,-17.2852 -8e-5,-4.4259 -0.58286,-8.5826 -1.83398,-12.4473 -1.18537,-4.3877 -3.62257,-8.5008 -6.94922,-11.6074 -2.49821,-2.4553 -5.54108,-4.1181 -8.77149,-5.4726 8.90682,-0.3415 17.14222,-2.8446 23.14844,-8.5899 a 9.6133413,9.6133413 0 0 0 0.15234,-0.1484 c 5.88213,-5.8819 9.16005,-13.9974 9.16016,-22.2969 -1.1e-4,-6.8172 -2.66535,-13.7495 -7.61133,-18.4727 -5.47754,-5.4077 -13.0396,-7.1715 -21.06445,-7.1718 z m -153.3125,50.3437 c -14.58209,2e-4 -27.43201,3.0518 -37.83203,9.8203 -9.62394,6.0849 -17.49215,14.047 -23.22266,23.5977 a 9.6133413,9.6133413 0 0 0 -0.0801,0.1367 c -5.35246,9.264 -9.06347,19.464 -11.09375,30.418 -1.94152,10.2949 -2.91602,20.2027 -2.91601,29.7031 -1e-5,11.5821 1.25779,21.8791 4.00586,30.9687 a 9.6133413,9.6133413 0 0 0 0.082,0.2579 c 2.89604,8.6882 6.94042,16.3153 12.32031,22.5918 3.18094,3.7111 6.88529,6.817 10.92188,9.4062 -1.24461,0.2154 -2.48837,0.4185 -3.73633,0.7305 a 9.6133413,9.6133413 0 0 0 -0.70703,0.207 c -3.55763,1.1857 -6.99924,2.8574 -10.18164,5.0606 -3.57212,2.473 -6.54296,5.7548 -8.6875,9.5078 -2.39793,4.1963 -3.48635,9.0307 -3.48633,13.8945 -2e-5,5.8531 1.87692,11.585 5.0332,16.6836 a 9.6133413,9.6133413 0 0 0 0.17578,0.2734 c 3.46898,5.2035 8.26003,9.5039 13.94922,13.0176 5.89377,3.8259 12.82995,6.6242 20.72461,8.6484 a 9.6133413,9.6133413 0 0 0 0.0547,0.016 c 8.35564,2.0889 17.68572,3.037 28.05078,3.0371 13.56625,-1e-4 25.33564,-1.3951 35.46094,-4.5547 9.91052,-3.0363 18.41693,-7.1951 25.32226,-12.7637 a 9.6133413,9.6133413 0 0 0 0.002,0 c 6.6264,-5.344 11.93321,-11.6578 15.70312,-18.7539 3.53116,-6.647 6.09772,-13.6116 7.58203,-20.8203 a 9.6133413,9.6133413 0 0 0 0,-0 c 1.34994,-6.5575 2.57807,-14.0437 3.70703,-22.5098 a 9.6133413,9.6133413 0 0 0 0,-0 c 1.12127,-8.4105 2.13607,-17.177 3.06641,-26.2929 0.92661,-9.0822 1.77426,-18.0722 2.51758,-26.9903 a 9.6133413,9.6133413 0 0 0 0,-0.018 c 0.74401,-9.1159 1.30083,-17.3986 1.67578,-24.8945 0.5485,-7.353 0.91163,-13.69 1.09961,-18.9492 a 9.6133413,9.6133413 0 0 0 0.002,-0.012 c 0.18511,-5.3717 0.28691,-8.686 0.28711,-10.5801 a 9.6133413,9.6133413 0 0 0 0,-0 c -1.8e-4,-12.2233 -2.05793,-22.5566 -9.71289,-29.4102 -6.84744,-6.4761 -16.38495,-8.6718 -27.27539,-8.6719 h -12.71875 c -2.4646,1e-4 -5.59931,0.5068 -8.45117,2.7207 -0.93369,0.7248 -1.68067,1.6327 -2.33985,2.5918 -3.65814,-2.5457 -7.81687,-4.4339 -12.38867,-5.7109 -5.15402,-1.6854 -10.75382,-2.3514 -16.91406,-2.3516 z m 348.96875,0 c -12.86533,2e-4 -24.35488,1.756 -34.40625,5.6055 -9.57412,3.6667 -17.99092,8.5671 -25.0332,14.7558 -6.85671,6.0258 -12.52287,12.9796 -16.91992,20.7266 a 9.6133413,9.6133413 0 0 0 -0.043,0.076 c -3.96045,7.1288 -7.19506,14.4285 -9.61524,21.8906 a 9.6133413,9.6133413 0 0 0 -0.0703,0.2266 c -2.17844,7.3277 -3.65852,14.5144 -4.46289,21.5527 -0.76465,6.6907 -1.18751,12.538 -1.1875,17.6855 -10e-6,13.5778 2.17986,25.4656 7.07226,35.4727 4.5766,9.3613 10.60629,17.2403 18.125,23.2109 a 9.6133413,9.6133413 0 0 0 0.10743,0.084 c 7.4731,5.7651 15.9426,9.8633 25.08203,12.2012 a 9.6133413,9.6133413 0 0 0 0.0508,0.014 c 8.84648,2.2117 17.74033,3.3183 26.64453,3.3183 6.66306,0 13.48516,-0.6031 20.4375,-1.7949 7.14463,-1.2248 13.77412,-3.1908 19.80859,-5.9863 6.4187,-2.8877 11.96565,-6.8653 16.27149,-11.8887 4.7199,-5.5065 7.31427,-12.7067 7.31445,-20.0683 -1.8e-4,-5.5373 -1.35085,-11.0443 -4.57226,-15.5547 a 9.6133413,9.6133413 0 0 0 0,-0 c -2.48396,-3.4771 -5.55599,-6.4613 -9.12891,-8.6601 a 9.6133413,9.6133413 0 0 0 0,-0 c -3.28133,-2.0192 -6.89708,-3.4989 -10.76367,-4.0938 l 0.86914,0.1739 c -2.57354,-0.6432 -4.32286,-1.0996 -7.04883,-1.0996 -4.58537,2e-4 -9.75784,2.5828 -12.55664,6.1816 a 9.6133413,9.6133413 0 0 0 -0.10156,0.1328 c -0.91322,1.2175 -2.18806,2.816 -3.66992,4.6328 -0.83558,0.9186 -2.23131,2.0775 -4.25977,3.3106 -0.42174,0.2234 -2.49617,0.9297 -6.22461,0.9297 -3.71093,0 -6.21535,-0.6321 -7.85742,-1.4532 -2.22335,-1.1116 -3.69952,-2.3523 -4.77149,-3.7168 -0.92372,-1.1755 -1.66399,-2.5464 -2.32421,-4.0449 0.57944,-0.019 0.83175,-0.012 1.4414,-0.033 a 9.6133413,9.6133413 0 0 0 0.30664,-0.016 c 5.92519,-0.395 12.25889,-1.1832 18.98438,-2.3359 a 9.6133413,9.6133413 0 0 0 0.26172,-0.049 c 6.86432,-1.3728 13.78687,-3.2257 20.77929,-5.5566 7.49885,-2.4997 14.39835,-5.991 20.56836,-10.459 a 9.6133413,9.6133413 0 0 0 0.0449,-0.033 c 6.54859,-4.8024 11.93429,-10.8464 15.90625,-17.8711 3.67255,-6.2192 5.64028,-13.3861 6.26563,-21.1094 0.74317,2.367 1.18127,3.7196 2.03125,6.4395 2.7405,8.7698 6.05766,19.7833 9.91601,33.0117 a 9.6133413,9.6133413 0 0 0 0.0469,0.1543 c 4.03048,13.0077 8.70768,28.7161 14.04297,47.1133 a 9.6133413,9.6133413 0 0 0 0.01,0.035 c 0.97959,3.331 2.056,6.593 3.25391,9.7871 a 9.6133413,9.6133413 0 0 0 0.0742,0.1954 c 1.39884,3.4975 3.20235,6.7458 5.39258,9.666 2.38744,3.1833 5.37412,5.8764 8.74609,7.9512 a 9.6133413,9.6133413 0 0 0 0.73828,0.4101 c 4.27718,2.1386 9.01237,2.9531 13.95508,2.9531 h 24.625 c 3.06228,0 5.38272,0.01 8.57031,-1.0566 4.89663,-1.6315 6.6199,-4.3232 8.60938,-7.0586 a 9.6133413,9.6133413 0 0 0 0.3125,-0.457 c 1.97689,-3.0754 4.53521,-7.6128 8.08008,-14.1426 a 9.6133413,9.6133413 0 0 0 0.0547,-0.1 c 3.5947,-6.8111 7.44061,-14.6086 11.54688,-23.3809 4.08007,-8.7167 8.23945,-17.978 12.48828,-27.7656 4.47827,-9.8895 8.51816,-19.3475 12.08789,-28.3652 a 9.6133413,9.6133413 0 0 0 0.0254,-0.062 c 3.55857,-9.1778 6.47224,-17.3494 8.76563,-24.6114 2.33822,-7.4047 3.7595,-12.7299 3.75976,-18.1132 -2.5e-4,-6.5665 -3.73797,-13.3838 -9.16601,-17.0508 -4.24552,-2.9712 -9.12241,-5.0426 -14.42774,-6.3692 -5.05586,-1.2638 -10.22218,-2.0063 -15.47851,-2.2168 -4.6797,-0.1873 -8.45887,-0.2888 -11.44727,-0.289 -4.33126,2e-4 -7.97273,-0.5569 -12.87695,3.2988 -4.37969,3.1184 -5.43805,7.0463 -6.20899,10.6445 l 0.0508,-0.2246 c -3.13984,13.1132 -5.89617,24.8477 -8.29687,35.1895 a 9.6133413,9.6133413 0 0 0 -0.0273,0.125 c -2.12809,9.7534 -4.17472,18.7592 -6.13086,27.1367 -0.23874,-1.7964 -0.42643,-3.6294 -0.68164,-5.416 -0.91789,-6.6079 -1.75462,-12.5606 -2.48633,-17.8653 -0.55043,-5.472 -1.10034,-10.2408 -1.66993,-14.2285 -0.55002,-3.8496 -0.90035,-6.3956 -1.09374,-7.75 a 9.6133413,9.6133413 0 0 0 -0.0762,-0.4551 c -1.11222,-5.783 -3.12581,-10.9975 -6.34765,-15.3613 -3.22939,-4.6257 -7.92554,-8.0021 -13.20899,-10.1797 -5.12259,-2.1859 -10.97637,-3.4286 -17.69922,-4.0468 -6.42664,-0.7909 -13.87217,-1.1484 -22.52734,-1.1485 -4.42777,2e-4 -9.25546,1.5596 -12.73047,4.6485 -2.55795,2.2738 -5.21708,5.1295 -5.91015,9.9804 a 9.6133413,9.6133413 0 0 0 -0.0547,0.7481 c -0.95981,-1.0688 -1.95381,-2.1133 -3.02344,-3.0918 -5.2734,-5.0099 -11.91195,-8.6807 -19.55469,-11.2285 -7.96109,-2.6535 -17.06125,-3.8065 -27.38281,-3.8067 z m 300.87495,0 c -0.8614,0 -1.8994,-0.021 -3.1347,0 a 9.6133413,9.6133413 0 0 0 -0,0 c -15.5712,0.3236 -29.24435,3.0746 -40.83005,8.6621 -11.66156,5.5309 -21.46904,13.113 -28.90234,22.67 -7.28056,9.3608 -12.4657,20.1426 -15.53125,31.9961 a 9.6133413,9.6133413 0 0 0 -0.0273,0.1132 c -2.76643,11.2634 -4.15431,22.8259 -4.1543,34.6368 -10e-6,10.2569 1.07498,20.0467 3.29492,29.33 a 9.6133413,9.6133413 0 0 0 0.0117,0.047 c 2.3301,9.5324 6.48487,18.1638 12.3418,25.5391 6.02103,7.5823 14.03434,13.5221 23.52929,17.7422 a 9.6133413,9.6133413 0 0 0 0.23438,0.1015 c 10.04519,4.1492 21.85066,5.9785 35.45117,5.9785 12.4098,0 23.5184,-1.5381 33.2949,-4.9355 9.5677,-3.262 17.9967,-7.7601 25.0742,-13.5508 6.8453,-5.6008 12.5814,-12.1344 17.0332,-19.5293 4.4038,-7.0194 7.868,-14.3247 10.3282,-21.8809 2.5979,-7.4236 4.3094,-14.9176 5.1269,-22.4257 0.9532,-7.2885 1.4432,-14.0186 1.4434,-20.1973 -2e-4,-22.0017 -5.5601,-40.5218 -17.5977,-53.9199 -12.3947,-14.1932 -32.213,-20.3807 -56.9844,-20.3809 z m -620.05464,8.3184 c -0.0159,-0 -0.25409,-0.1304 0.10938,0.094 -0.0398,-0.028 -0.0694,-0.066 -0.10938,-0.094 z m 9.45899,9.7754 c 0.0331,0.064 -0.10479,-0.084 0.14648,0.2597 -0.0547,-0.083 -0.0912,-0.1768 -0.14648,-0.2597 z M 387,2727.3633 c 4.5714,0 5.75833,0.7945 7.31641,3.0449 a 9.6133413,9.6133413 0 0 0 0.25,0.3457 c 1.24831,1.6426 3.28896,7.6662 3.28906,17.7149 -9e-5,2.9711 -0.25465,6.7883 -0.7793,11.3359 -0.43763,3.7922 -1.44149,7.3689 -3.06445,10.9101 -1.42473,3.1077 -3.37306,5.6255 -6.1543,7.877 a 9.6133413,9.6133413 0 0 0 -0.17578,0.1465 c -1.54333,1.3118 -4.13814,2.4298 -9.24414,2.4297 -5.56651,10e-5 -7.08595,-1.0981 -8.12305,-2.5274 -1.45266,-2.1866 -3.01372,-7.225 -3.01367,-15.2656 -4e-5,-2.0912 0.24937,-5.7289 0.7832,-10.5332 a 9.6133413,9.6133413 0 0 0 0.006,-0.037 c 0.46328,-4.3243 1.4641,-8.5726 3.01368,-12.7852 1.55227,-3.9268 3.66137,-7.0793 6.49414,-9.7773 1.83457,-1.7471 4.314,-2.8788 9.40234,-2.8789 z m 327.15625,0 c 2.80381,0 2.58275,0.2881 2.81055,0.5918 a 9.6133413,9.6133413 0 0 0 0.22851,0.2929 c 1.15036,1.416 1.44137,2.3022 1.44141,3.9082 -5e-5,3.4472 -0.50029,4.6054 -5.55469,7.1973 a 9.6133413,9.6133413 0 0 0 -0.0898,0.047 c -2.91671,1.5352 -6.7578,2.7353 -11.34571,3.5625 0.87614,-3.1063 1.93094,-5.8921 3.20899,-8.3535 1.50075,-2.5539 3.10702,-4.4267 4.77344,-5.7598 a 9.6133413,9.6133413 0 0 0 0.0566,-0.045 c 1.25576,-1.0203 2.30638,-1.4414 4.4707,-1.4414 z m 305.53125,0 c 6.2216,1e-4 7.85,1.1982 9.2715,3.4883 a 9.6133413,9.6133413 0 0 0 0.2109,0.3261 c 2.0103,2.9627 3.5917,8.1634 3.5918,16.1661 -10e-5,3.5553 -0.3968,8.4338 -1.2715,14.3828 a 9.6133413,9.6133413 0 0 0 -0.037,0.2754 c -0.6337,5.3862 -1.9818,10.474 -4.0371,15.375 a 9.6133413,9.6133413 0 0 0 -0.1,0.246 c -1.75,4.521 -4.1345,8.1194 -7.3359,11.1817 a 9.6133413,9.6133413 0 0 0 -0.1524,0.1484 c -2.231,2.231 -4.5257,3.2462 -8.9843,3.2461 -4.6516,1e-4 -6.317,-0.9182 -8.6348,-4.3398 -2.1002,-3.1003 -4.15826,-10.2771 -4.15822,-21.4219 -4e-5,-3.3482 0.26557,-7.7357 0.78516,-12.9746 0.63733,-4.868 1.80876,-9.3488 3.47066,-13.4531 1.6799,-3.8958 3.8938,-6.9256 6.8204,-9.4532 a 9.6133413,9.6133413 0 0 0 0.023,-0.021 c 2.2761,-1.9792 5.2188,-3.1718 10.5371,-3.1719 z m -631.20508,103.2383 c -0.79615,2.4302 -1.682,4.582 -2.67187,6.3418 a 9.6133413,9.6133413 0 0 0 -0.11328,0.207 c -3.21296,6.0551 -7.14922,8.4237 -16.94727,8.4238 -6.17632,-1e-4 -10.00069,-1.0945 -10.80078,-1.539 -2.41904,-1.3439 -3.92421,-2.697 -4.79883,-3.834 a 9.6133413,9.6133413 0 0 0 -0.23437,-0.293 c -1.08774,-1.3052 -1.93027,-2.3379 -2.86329,-3.4687 3.21585,0.4289 6.48904,0.705 9.85352,0.705 10.70305,0 20.352,-2.0503 28.57617,-6.5429 z m 176.06446,1.539 c 0.0417,-0.05 0.15083,-0.183 -0.10547,0.092 0.0337,-0.034 0.0718,-0.058 0.10547,-0.092 z"
         transform="matrix(1.1377778,0,0,1.1377778,-725.83571,164.96644)" />
      <path
         style="font-style:normal;font-variant:normal;font-weight:normal;font-stretch:normal;font-size:276.526px;line-height:125%;font-family:'Poetsen One';-inkscape-font-specification:'Poetsen One';text-align:start;letter-spacing:0px;word-spacing:0px;writing-mode:lr-tb;text-anchor:start;fill:#ffffff;fill-opacity:1;stroke:none;stroke-width:1.13778"
         d="m -112.29875,3158.0686 c -8.59982,2e-4 -15.4105,2.2089 -20.44445,6.6134 -5.03405,4.405 -7.57337,10.3693 -7.57333,17.92 -4e-5,12.1657 7.14139,18.2401 21.40443,18.2399 9.22894,2e-4 16.26013,-2.283 21.084454,-6.8977 4.824167,-4.824 7.217688,-10.7137 7.217778,-17.6356 -9e-5,-5.4532 -1.767674,-9.8349 -5.333333,-13.1911 -3.35608,-3.3557 -8.804629,-5.0487 -16.355549,-5.0489 z m 71.715549,0 c -8.599882,2e-4 -15.410563,2.2089 -20.444445,6.6134 -5.03412,4.4049 -7.537891,10.3693 -7.537777,17.92 -1.14e-4,12.1657 7.141318,18.2401 21.404444,18.2399 9.228857,2e-4 16.224484,-2.283 21.048889,-6.8977 4.824087,-4.824 7.253174,-10.7137 7.253334,-17.6356 -1.6e-4,-5.4532 -1.767743,-9.8349 -5.333334,-13.1911 -3.35616,-3.3557 -8.84026,-5.0487 -16.391111,-5.0489 z m -246.151109,57.28 c -15.10207,2e-4 -27.47156,3.1298 -37.12,9.4222 -9.64854,6.083 -17.30567,13.8504 -22.96889,23.2889 -5.45351,9.439 -9.24475,19.8202 -11.34223,31.1467 -2.09751,11.1168 -3.1289,21.7187 -3.12888,31.7867 -2e-5,12.3752 1.36212,23.0519 4.08888,32.0711 2.93649,8.8096 6.91265,16.1714 11.94667,22.0444 5.03397,5.8731 11.10847,10.1444 18.24,12.8711 7.13145,2.7269 15.00907,4.0889 23.60889,4.0889 11.32642,0 20.75113,-2.1729 28.30222,-6.5777 7.5509,-4.6145 13.95613,-11.6458 19.2,-21.0844 -1.3e-4,19.0872 -2.83464,33.6652 -8.49778,43.7331 -5.4536,10.2778 -15.0988,15.3955 -28.94222,15.3957 -7.97057,-2e-4 -13.82456,-1.0314 -17.6,-3.1289 -3.77555,-2.0975 -6.72033,-4.5266 -8.81778,-7.2533 -2.09755,-2.517 -4.01092,-4.8004 -5.68888,-6.8978 -1.67804,-2.0975 -4.29207,-3.1644 -7.85779,-3.1644 -2.93653,0 -6.06625,0.441 -9.42221,1.28 -3.14629,1.0486 -6.09106,2.4856 -8.81779,4.3733 -2.72676,1.8878 -4.93535,4.3168 -6.61333,7.2533 -1.67802,2.9365 -2.52445,6.397 -2.52444,10.3822 -1e-5,4.4047 1.36213,8.8219 4.08889,13.2267 2.93648,4.4047 7.13315,8.2707 12.58667,11.6266 5.45347,3.5657 12.29971,6.4004 20.48,8.4979 8.38994,2.0975 18.1454,3.1287 29.26221,3.1288 14.68241,-1e-4 27.05191,-1.5472 37.12,-4.6933 10.27764,-3.1463 18.67096,-7.343 25.17334,-12.5867 6.50211,-5.2438 11.50966,-11.2436 15.07556,-17.9556 3.56559,-6.7119 6.10492,-13.633 7.57333,-20.7645 1.46809,-7.1314 2.83022,-15.4144 4.08889,-24.8532 1.25833,-9.4386 2.39997,-19.3044 3.44888,-29.5822 1.04858,-10.2776 2.00528,-20.4386 2.84445,-30.5067 0.83883,-10.2776 1.46477,-19.5922 1.88445,-27.9822 0.62907,-8.39 1.03452,-15.5314 1.24444,-21.4044 0.20962,-6.0827 0.31982,-9.9841 0.32,-11.6622 -1.8e-4,-12.5849 -2.50394,-21.0529 -7.53777,-25.4578 -4.82441,-4.6144 -12.70205,-6.9332 -23.6089,-6.9334 h -14.4711 c -2.51713,2e-4 -3.87927,1.0672 -4.0889,3.1644 -1.2e-4,0.6295 -0.11036,2.0664 -0.32,4.3734 -1.2e-4,2.0976 -0.11036,4.3063 -0.32,6.6133 -0.20988,2.3074 -0.39482,4.4057 -0.60444,6.2934 -1.2e-4,1.678 -1.2e-4,2.4142 0,2.2043 -1.04887,-3.5656 -2.63151,-6.9157 -4.72889,-10.0621 -1.88785,-3.1461 -4.5019,-5.8704 -7.85777,-8.1778 -3.14637,-2.3071 -7.04783,-4.1102 -11.66223,-5.369 -4.40485,-1.468 -9.74314,-2.1686 -16.03555,-2.1688 z m 397.04889,0 c -13.633846,2e-4 -25.377385,1.878 -35.235559,5.6534 -9.85831,3.7756 -18.251628,8.7084 -25.173334,14.7912 -6.921784,6.0829 -12.555274,13.0038 -16.96,20.7643 -4.19502,7.5512 -7.580796,15.2082 -10.097777,22.9688 -2.307266,7.7611 -3.854347,15.3078 -4.693333,22.649 -0.839009,7.3413 -1.280012,13.6362 -1.28,18.88 -1.2e-5,14.263 2.318825,26.1169 6.933333,35.5555 4.614486,9.4388 10.468477,16.9858 17.6,22.6489 7.341215,5.6633 15.549588,9.6395 24.568889,11.9467 9.228936,2.3073 18.433149,3.449 27.662222,3.449 6.921659,0 14.063089,-0.6261 21.404449,-1.8845 7.34113,-1.2586 13.96687,-3.2466 19.84,-5.9734 6.08261,-2.7267 10.97991,-6.2976 14.75555,-10.7022 3.77536,-4.4047 5.68875,-9.6328 5.68888,-15.7155 -1.3e-4,-4.6145 -1.06708,-8.4057 -3.16443,-11.3423 -2.09765,-2.9364 -4.49118,-5.2198 -7.21778,-6.8978 -2.7269,-1.6779 -5.45116,-2.7449 -8.17779,-3.1644 -2.51712,-0.6292 -4.32026,-0.9243 -5.36888,-0.9244 -2.30737,10e-5 -4.18521,0.921 -5.65333,2.8088 -1.25863,1.678 -2.84126,3.6661 -4.72889,5.9734 -1.88786,2.0975 -4.39164,4.0856 -7.53778,5.9733 -2.9366,1.6781 -7.13326,2.5244 -12.58667,2.5244 -5.453581,0 -10.055687,-0.9211 -13.831106,-2.8089 -3.77558,-1.8877 -6.830604,-4.3167 -9.137778,-7.2533 -2.307323,-2.9363 -4.074894,-6.2867 -5.333334,-10.0621 -1.048815,-3.9853 -1.600068,-7.9614 -1.6,-11.9467 3.355933,1e-4 8.068289,-0.1104 14.151112,-0.3201 6.292411,-0.4195 13.138659,-1.266 20.479996,-2.5243 7.34115,-1.4682 14.77778,-3.4563 22.32889,-5.9734 7.55087,-2.517 14.36156,-5.9773 20.44444,-10.3822 6.29236,-4.6145 11.33546,-10.2835 15.11112,-16.9957 3.98508,-6.7119 5.97317,-14.8847 5.97333,-24.5332 -1.6e-4,-6.5023 -1.06711,-12.5767 -3.16445,-18.24 -2.09764,-5.6632 -5.44787,-10.5961 -10.06222,-14.7912 -4.61464,-4.4046 -10.68912,-7.8649 -18.24,-10.3822 -7.55111,-2.5168 -16.79089,-3.7687 -27.69777,-3.7689 z m 338.98672,0 c -16.56707,0.3443 -30.55053,3.2766 -41.95561,8.7823 -11.9558,5.6634 -21.63657,13.2103 -28.97779,22.6488 -7.34127,9.439 -12.56931,20.2613 -15.71555,32.4267 -2.9365,11.9557 -4.40889,24.2149 -4.40888,36.8001 -10e-6,10.9069 1.14162,21.1781 3.44888,30.8266 2.30723,9.4388 6.31896,17.7219 11.98222,24.8532 5.66322,7.1316 13.2101,12.8007 22.6489,16.9957 9.64844,3.9853 21.68718,5.9734 36.16,5.9734 13.21414,0 24.66246,-1.6574 34.31116,-5.0135 9.85805,-3.3559 18.25144,-7.8834 25.17334,-13.5466 6.92156,-5.6632 12.59064,-12.1432 16.99543,-19.4845 4.61438,-7.3411 8.18507,-14.888 10.70229,-22.6489 2.72657,-7.7606 4.49411,-15.5281 5.33333,-23.2889 1.04857,-7.9705 1.56421,-15.2221 1.56445,-21.7244 -2.4e-4,-23.2821 -5.74396,-41.3207 -17.28,-54.1155 -11.3267,-13.0044 -30.21165,-19.4843 -56.64007,-19.4845 -1.1273,0 -2.23766,-0.022 -3.3421,0 z m -599.36006,3.1289 c -2.93654,2e-4 -5.03486,0.7364 -6.29334,2.2044 -1.25852,1.2588 -2.10496,3.7625 -2.52443,7.5378 -0.20977,2.5172 -0.61522,6.7138 -1.24445,12.5867 -0.41952,5.8732 -0.93522,12.6837 -1.56445,20.4445 -0.41952,7.7609 -0.97077,16.0794 -1.6,24.8889 -0.62927,8.5999 -1.2552,16.7725 -1.88444,24.5332 -0.41951,7.7608 -0.82496,14.7921 -1.24444,21.0845 -0.20973,6.0828 -0.32002,10.4645 -0.32,13.1911 -2e-5,6.9218 1.14162,13.4373 3.44888,19.52 2.30723,6.0828 5.58276,11.3109 9.77778,15.7156 4.40473,4.4048 9.74302,7.9754 16.03555,10.7021 6.29246,2.517 13.43389,3.7691 21.40445,3.7691 4.19494,0 8.46628,-0.5159 12.87112,-1.5645 4.404663,-0.839 8.711573,-2.3115 12.906662,-4.4089 4.194907,-2.3074 8.206621,-5.3266 11.982222,-9.1022 3.985147,-3.7755 7.520302,-8.4133 10.666667,-13.8668 0.209636,3.356 0.835584,6.6316 1.884445,9.7779 1.048632,3.1462 2.851771,5.8704 5.368888,8.1777 2.516879,2.3072 5.756849,4.1849 9.742223,5.6533 4.194861,1.4682 9.458472,2.2046 15.75111,2.2046 h 12.266667 c 2.936344,0 4.593676,-0.4412 5.013333,-1.28 0.62909,-0.8391 1.180343,-3.4532 1.6,-7.8579 1.677836,-23.0725 3.039973,-42.3629 4.08889,-57.8844 1.258325,-15.7312 2.2897206,-28.6164 3.1288886,-38.6845 0.8388267,-10.2776 1.3545244,-18.2654 1.5644444,-23.9289 0.419328,-5.8729 0.6398293,-10.3646 0.64,-13.5112 -1.707e-4,-4.824 -0.5158684,-9.0206 -1.5644444,-12.5864 -0.839168,-3.7755 -2.5320566,-6.9407 -5.0488886,-9.4579 -2.307413,-2.5167 -5.547383,-4.3946 -9.742223,-5.6534 -3.985408,-1.468 -9.249007,-2.2042 -15.75111,-2.2044 h -11.306667 c -2.307379,2e-4 -4.000268,0.6262 -5.04889,1.8844 -1.048871,1.2587 -1.67482,2.731 -1.884443,4.4089 -0.629374,6.5025 -1.255322,14.2698 -1.884445,23.2889 -0.419624,8.8097 -1.045561,17.9391 -1.884445,27.3778 -0.629373,9.4388 -1.660757,18.7533 -3.128888,27.9821 -1.468371,9.2291 -3.491999,17.5123 -6.008889,24.8535 -2.307357,7.1316 -5.437076,13.0211 -9.422223,17.6355 -3.775601,4.4048 -8.487958,6.6134 -14.15111,6.6133 -6.502332,10e-5 -11.655694,-2.0234 -15.431114,-6.0089 -3.56583,-4.1948 -5.33339,-9.9387 -5.33333,-17.2798 -6e-5,-3.3561 0.29513,-8.8045 0.92445,-16.3557 0.83892,-7.5508 1.57512,-15.6491 2.20444,-24.2489 0.83893,-8.5997 1.57512,-16.8827 2.20444,-24.8533 0.83893,-7.9704 1.27993,-14.1551 1.28,-18.56 -7e-5,-4.1949 -0.55131,-7.8758 -1.6,-11.0222 -0.83907,-3.3559 -2.49639,-6.1548 -5.01333,-8.4622 -2.30732,-2.3071 -5.58284,-4.1103 -9.77778,-5.369 -4.19505,-1.2582 -9.53335,-1.8842 -16.03555,-1.8844 z m 338.48889,0 c -2.93651,2e-4 -5.33003,0.8466 -7.21778,2.5245 -1.88775,1.6781 -2.9547,3.2607 -3.16445,4.7289 0,0.4196 0.22049,1.2305 0.64,2.4888 0.41949,1.049 1.15569,3.2575 2.20445,6.6134 1.04874,3.1464 2.52113,7.784 4.40889,13.8666 1.88774,5.8731 4.39152,13.8255 7.53778,23.8934 3.14623,10.0681 6.93744,22.6581 11.34222,37.76 4.61446,14.8923 9.95277,32.8207 16.03556,53.7955 1.0487,3.5659 2.19034,7.0263 3.44889,10.3822 1.25845,3.1464 2.84108,5.9809 4.72888,8.4978 1.8877,2.517 4.20653,4.6155 6.93333,6.2933 2.93644,1.4682 6.58186,2.2046 10.98667,2.2046 h 28.01778 c 2.93641,0 5.03474,-0.2207 6.29334,-0.6402 1.2584,-0.4193 2.73078,-1.7814 4.40888,-4.0888 1.88765,-2.9365 4.79686,-8.0544 8.78223,-15.3956 3.98512,-7.551 8.29204,-16.275 12.90667,-26.1333 4.61436,-9.8581 9.32672,-20.3497 14.1511,-31.4667 5.03386,-11.1166 9.56126,-21.7186 13.54667,-31.7865 3.98509,-10.2777 7.22506,-19.3718 9.74223,-27.3423 2.51683,-7.9704 3.76871,-13.7496 3.76888,-17.3156 -1.7e-4,-4.4046 -1.87799,-7.865 -5.65333,-10.3821 -3.56591,-2.5169 -7.87282,-4.3947 -12.90667,-5.6535 -5.03414,-1.2583 -10.15194,-1.9944 -15.39555,-2.2044 -5.24388,-0.2099 -9.44054,-0.3198 -12.58667,-0.3201 -4.19512,1e-4 -6.9194,0.5159 -8.17778,1.5645 -1.25862,0.8393 -2.2153,2.717 -2.84445,5.6534 -3.56584,14.8923 -6.69557,28.2186 -9.42221,39.9644 -2.51711,11.5365 -4.94618,22.2485 -7.25334,32.1068 -2.09759,9.6484 -4.30617,18.7779 -6.61333,27.3776 -2.09759,8.5998 -4.38085,17.2884 -6.89778,26.0979 -0.83907,-5.034 -1.79578,-10.9983 -2.84444,-17.92 -0.83908,-6.9218 -1.79578,-14.0632 -2.84445,-21.4046 -0.83907,-7.5508 -1.76021,-14.9876 -2.80888,-22.3288 -1.04884,-7.5511 -2.00552,-14.3616 -2.84445,-20.4444 -0.62932,-6.2924 -1.25527,-11.6662 -1.88445,-16.0711 -0.62931,-4.4046 -1.03476,-7.3494 -1.24444,-8.8178 -1.04882,-5.4534 -2.85195,-9.8349 -5.36889,-13.1911 -2.30731,-3.3558 -5.76777,-5.9699 -10.38222,-7.8578 -4.40479,-1.8876 -10.07385,-3.175 -16.99555,-3.8044 -6.71202,-0.8389 -14.88486,-1.2443 -24.53334,-1.2445 z m -461.01333,38.6844 c 7.76064,10e-5 13.53994,2.7245 17.31555,8.1778 3.98512,5.244 5.97321,14.1886 5.97334,26.7735 -1.3e-4,3.9853 -0.33087,8.6976 -0.96,14.1509 -0.62938,5.4538 -2.10176,10.6817 -4.40889,15.7157 -2.30737,5.034 -5.65759,9.3409 -10.06223,12.9066 -4.19509,3.5658 -10.0491,5.3691 -17.6,5.3689 -8.59983,2e-4 -14.67431,-2.5394 -18.24,-7.5734 -3.56581,-5.2436 -5.36895,-13.1213 -5.36888,-23.6088 -7e-5,-3.1461 0.33068,-7.5277 0.96,-13.1912 0.62918,-5.8728 1.99131,-11.6521 4.08888,-17.3155 2.30718,-5.8729 5.6574,-10.9159 10.06223,-15.1111 4.40465,-4.1948 10.47916,-6.2933 18.24,-6.2934 z m 372.23111,0 c 5.4534,10e-5 9.42956,1.693 11.94667,5.049 2.72665,3.356 4.08878,7.1473 4.08889,11.3421 -1.1e-4,7.761 -4.08653,13.7252 -12.26667,17.92 -7.97059,4.1952 -18.462243,6.4038 -31.466668,6.6135 0.629192,-4.4047 1.47563,-9.0426 2.524445,-13.8669 1.258428,-4.824 2.91576,-9.2055 5.013333,-13.191 2.307175,-3.9852 5.031447,-7.2606 8.177777,-9.7777 3.355922,-2.7265 7.367636,-4.0889 11.982223,-4.089 z m 347.62666,0 c 9.43867,10e-5 16.06441,3.0552 19.84,9.1377 3.98507,5.8733 5.97323,14.0462 5.97333,24.5336 -10e-5,4.8243 -0.51586,10.8241 -1.56443,17.9554 -0.83912,7.1316 -2.64226,13.9423 -5.36895,20.4446 -2.51711,6.5022 -6.16243,12.061 -10.98662,16.6754 -4.61459,4.6145 -10.61444,6.8979 -17.95549,6.8978 -8.1804,1e-4 -14.47539,-3.2399 -18.88006,-9.7422 -4.40481,-6.5022 -6.61338,-16.6631 -6.61333,-30.5067 -5e-5,-4.4046 0.33069,-9.7429 0.96,-16.0355 0.83893,-6.5023 2.42157,-12.6121 4.72888,-18.2757 2.51693,-5.8729 6.08765,-10.8057 10.70229,-14.791 4.82406,-4.1948 11.1938,-6.2933 19.16438,-6.2934 z"
         id="path4201"
         inkscape:connector-curvature="0" />
    </g>
    <path
       transform="matrix(1.1377778,0,0,1.1377778,1492.7091,-2035.7825)"
       d="m 577.75,2413.6836 c -9.76521,2e-4 -18.8176,2.4015 -25.83984,7.9707 -7.09944,5.6308 -11.10159,14.6383 -11.10157,23.7519 -10e-6,7.4813 2.97284,15.2868 8.94141,20.0098 -1.40061,0.3635 -2.97848,0.9674 -4.9375,2.9258 a 10.254344,10.254344 0 0 0 0,0 c -3.51937,3.52 -3.26805,5.5548 -3.63086,7.4414 -0.36281,1.8865 -0.51464,3.7163 -0.61133,5.8437 l 0.0156,-0.2793 c -1.32978,18.2843 -2.49851,33.6678 -3.49414,46.1133 a 10.254344,10.254344 0 0 0 -0.01,0.1269 c -0.82966,12.2788 -1.57828,22.4599 -2.23828,30.545 v -0.018 c -0.66735,8.008 -1.16985,14.3581 -1.50781,19.0898 a 10.254344,10.254344 0 0 0 -0.0195,0.3516 c -0.16894,4.5613 -0.25783,8.1229 -0.25782,10.8476 -10e-6,4.4245 0.37692,8.5724 1.24414,12.4747 a 10.254344,10.254344 0 0 0 0.17383,0.6679 c 1.22972,4.1814 3.37093,8.0833 6.27735,11.2539 a 10.254344,10.254344 0 0 0 0.30859,0.3223 c 3.17328,3.1734 7.10978,5.5318 11.42383,7.1211 a 10.254344,10.254344 0 0 0 0.59961,0.1992 c 4.73118,1.4193 9.87235,1.9336 15.69531,1.9336 H 577.75 c 3.2201,0 6.88797,0.6074 11.5,-4.0039 4.00424,-4.0048 3.96574,-7.3632 4.21875,-10.3984 1.49808,-17.9776 2.75158,-33.2806 3.75195,-45.9512 a 10.254344,10.254344 0 0 0 0.002,-0.01 c 0.99564,-12.7784 1.74484,-23.3851 2.25,-31.9472 l 0.0137,-0.1856 c 0.65926,-8.5836 1.13167,-15.4212 1.46289,-20.3887 0.3403,-5.1052 0.52337,-8.9779 0.52344,-11.9316 -7e-5,-4.1222 -0.46719,-8.1277 -1.56055,-11.9941 -1.0763,-4.4232 -3.36132,-8.6047 -6.57422,-11.8575 -1.78347,-1.8936 -3.86124,-3.3775 -6.08789,-4.6015 3.97926,-1.3773 7.65665,-3.2928 10.78125,-6.0703 a 10.254344,10.254344 0 0 0 0.0156,-0.016 c 6.5239,-5.8246 10.42568,-14.3613 10.42578,-23.1172 -1.1e-4,-7.0974 -3.05116,-14.3821 -8.41602,-19.0683 -5.93265,-5.4919 -13.80931,-7.1541 -22.30664,-7.1543 z m -88.43945,3.5 c -1.76081,3e-4 -2.88618,-0.2551 -5.98438,0.7754 l 3.23242,-0.5254 c -2.78612,0 -6.3412,1.3476 -8.49609,3.5019 a 10.254344,10.254344 0 0 0 0,0 c -3.51987,3.5201 -3.26804,5.5547 -3.63086,7.4414 -0.36282,1.8867 -0.51468,3.7163 -0.61133,5.8438 l 0.01,-0.1758 c -0.32981,5.2755 -0.66137,9.9536 -0.98828,14.041 -0.33257,4.156 -0.66699,8.3049 -1,12.4687 a 10.254344,10.254344 0 0 0 -0.0234,0.4082 c -0.0611,1.5279 -0.19248,3.3517 -0.27734,4.9786 -6.20627,-2.6755 -13.218,-3.8221 -20.91602,-3.8223 -9.68418,2e-4 -18.61869,1.4572 -26.61133,4.7363 a 10.254344,10.254344 0 0 0 -0.0859,0.037 c -7.40781,3.1193 -14.01557,7.4292 -19.60156,12.8145 -5.26732,5.0722 -9.71026,10.9628 -13.20117,17.5566 -1.66355,3.1424 -3.13903,6.3392 -4.43359,9.586 -0.27786,-5.2122 -1.11682,-10.3152 -2.88868,-15.0996 -2.22177,-5.9982 -5.90615,-11.3331 -10.63085,-15.6543 -4.94626,-4.6913 -11.14055,-8.1236 -18.21094,-10.4805 -7.42242,-2.474 -15.791,-3.4959 -25.21094,-3.4961 -11.74661,2e-4 -22.29827,1.584 -31.60547,5.1484 -8.80255,3.3713 -16.56391,7.907 -23.06836,13.6231 -6.29245,5.5298 -11.5756,11.93 -15.65039,19.1094 a 10.254344,10.254344 0 0 0 -0.0449,0.082 c -3.63659,6.5459 -6.55394,13.2319 -8.75977,20.0332 a 10.254344,10.254344 0 0 0 -0.0742,0.2422 c -1.98328,6.6711 -3.36888,13.2472 -4.10938,19.7265 -0.69653,6.0946 -1.06642,11.4235 -1.06641,16.1329 -1e-5,12.4256 1.98779,23.4052 6.54297,32.7226 4.21817,8.6281 9.81339,15.9439 16.80274,21.4941 a 10.254344,10.254344 0 0 0 0.11328,0.09 c 6.90781,5.3289 14.74599,9.1227 23.1914,11.2832 a 10.254344,10.254344 0 0 0 0.0547,0.014 c 8.09853,2.0246 16.2752,3.0566 24.45508,3.0566 6.11522,0 12.35179,-0.5599 18.70117,-1.6484 6.57447,-1.1271 12.67252,-2.954 18.23633,-5.5293 5.946,-2.6743 11.17963,-6.3696 15.25391,-11.1231 4.5201,-5.2737 6.96857,-12.2147 6.96875,-19.1719 -1.7e-4,-5.2217 -1.28786,-10.5562 -4.41016,-14.9277 -2.3167,-3.2432 -5.20694,-6.1313 -8.6875,-8.2734 a 10.254344,10.254344 0 0 0 -0.002,0 c -3.14233,-1.9337 -6.62091,-3.3341 -10.31446,-3.9024 l 0.92774,0.1875 c -1.37681,-0.3442 -2.55141,-0.6096 -3.81641,-0.8027 5.93895,-2.2117 11.54361,-4.9984 16.5625,-8.6328 a 10.254344,10.254344 0 0 0 0.0488,-0.037 c 5.41995,-3.9747 9.96458,-8.922 13.52539,-14.5918 -0.69436,6.1017 -1.06056,11.7717 -1.06055,17.043 -10e-6,11.6079 1.31905,21.8922 4.25586,30.8984 a 10.254344,10.254344 0 0 0 0.0645,0.1894 c 2.99751,8.6179 7.05402,16.1411 12.40429,22.3145 a 10.254344,10.254344 0 0 0 0.12696,0.1445 c 5.43888,6.0434 11.96717,10.7033 19.28125,13.6289 a 10.254344,10.254344 0 0 0 0.0918,0.037 c 7.15021,2.7806 14.71325,4.1973 22.43555,4.1973 10.62946,0 20.37444,-2.3893 28.35742,-7.6953 1.8334,-1.1929 3.57122,-2.4955 5.21094,-3.8926 1.25406,1.2862 2.57653,2.5053 4.0332,3.5137 a 10.254344,10.254344 0 0 0 0.74805,0.4726 c 3.33906,1.9083 7.00022,3.2491 10.86328,4.1075 a 10.254344,10.254344 0 0 0 0.625,0.1172 c 3.72889,0.5888 7.58345,0.8769 11.56836,0.8769 h 9 c 1.65547,0 3.23154,-0.069 5.16797,-0.5293 1.93642,-0.4607 4.75583,-1.2433 7.25195,-4.5703 a 10.254344,10.254344 0 0 0 0.002,-0 c 2.80572,-3.7422 2.72042,-5.8274 3.16016,-8.4649 a 10.254344,10.254344 0 0 0 0.0977,-0.7578 c 0.19052,-2.0974 0.43377,-5.7197 0.76172,-11.1172 0.49727,-5.6374 1.08005,-12.2463 1.74218,-19.8593 a 10.254344,10.254344 0 0 0 0.002,-0.02 c 0.6694,-7.8671 1.34133,-16.4048 2.00976,-25.5937 a 10.254344,10.254344 0 0 0 0,-0.014 c 0.66518,-9.3144 1.33409,-18.6162 2,-27.9375 a 10.254344,10.254344 0 0 0 0.002,-0.014 c 0.66412,-9.4656 1.33173,-18.613 1.99609,-27.414 0.66559,-8.8209 1.25158,-16.6243 1.75195,-23.461 a 10.254344,10.254344 0 0 0 0,-0.017 c 0.49778,-6.9707 0.91517,-12.5516 1.24414,-16.6621 a 10.254344,10.254344 0 0 0 0,-0 c 0.16616,-2.0777 0.29178,-3.6296 0.375,-4.6621 0.0416,-0.5162 0.071,-0.9016 0.0918,-1.1582 0.0104,-0.1283 0.0183,-0.224 0.0234,-0.2871 0.005,-0.063 0.008,-0.098 0.008,-0.098 a 10.254344,10.254344 0 0 0 0.0352,-0.8301 c -1.9e-4,-3.8012 -0.57482,-7.5626 -1.75196,-11.1347 -1.32535,-4.1923 -3.70023,-8.0317 -6.75195,-11.084 -3.31215,-3.3116 -7.40762,-5.6186 -11.86133,-7.1777 a 10.254344,10.254344 0 0 0 -0.002,0 c -4.82476,-1.6883 -10.06262,-2.326 -15.85547,-2.3262 h -9.71875 a 10.254344,10.254344 0 0 0 -0.002,0 z M 120,2462.1211 c -9.59885,2e-4 -18.53737,1.8288 -26.371094,5.8516 -3.45315,1.7732 -6.515772,4.2203 -9.388672,7 -0.431489,-0.4578 -0.756275,-1.0136 -1.21875,-1.4375 -3.190917,-2.9248 -6.988949,-5.0357 -11.132812,-6.5625 -4.791748,-1.7654 -9.970763,-2.3827 -15.763672,-2.3829 h -9.75 c -1.477882,10e-5 -2.859114,0.054 -4.519531,0.3692 -1.660418,0.315 -3.893974,0.5784 -6.699219,3.3828 a 10.254344,10.254344 0 0 0 0,0 c -3.519309,3.5199 -3.268051,5.5548 -3.630859,7.4414 -0.362809,1.8865 -0.514637,3.7163 -0.611329,5.8437 l 0.01563,-0.2793 c -1.329779,18.2843 -2.498507,33.6678 -3.494141,46.1133 a 10.254344,10.254344 0 0 0 -0.0098,0.1269 c -0.829656,12.2788 -1.57829,22.4598 -2.238281,30.545 v -0.018 c -0.667354,8.008 -1.169849,14.3581 -1.507812,19.0898 a 10.254344,10.254344 0 0 0 -0.01953,0.3516 c -0.168937,4.5613 -0.257823,8.1229 -0.257812,10.8476 -1.2e-5,4.4245 0.376914,8.5724 1.24414,12.4747 a 10.254344,10.254344 0 0 0 0.173828,0.6679 c 1.229723,4.1814 3.370959,8.0833 6.277344,11.2539 a 10.254344,10.254344 0 0 0 0.308594,0.3223 c 3.173267,3.1733 7.109778,5.5318 11.423828,7.1211 a 10.254344,10.254344 0 0 0 0.59961,0.1992 c 4.731182,1.4193 9.872356,1.9336 15.695312,1.9336 h 8.96875 c 3.220097,0 6.887892,0.6075 11.5,-4.0039 4.004241,-4.0048 3.965736,-7.3632 4.21875,-10.3984 a 10.254344,10.254344 0 0 0 0.01367,-0.1914 c 0.322932,-5.0062 0.815015,-10.8926 1.472656,-17.6329 a 10.254344,10.254344 0 0 0 0.002,-0.023 c 0.675559,-7.094 1.269827,-14.4914 1.775391,-22.2422 a 10.254344,10.254344 0 0 0 0.002,-0.041 c 0.477864,-7.806 1.277292,-15.2699 2.378906,-22.3809 1.245921,-6.987 2.758728,-12.878 4.466797,-17.5937 1.793491,-4.6649 3.850637,-7.9207 5.822266,-9.9961 1.505806,-1.5851 2.086716,-1.8086 4.035156,-1.8086 0.97658,0 0.97283,-0.076 1.08008,-0.1445 0.88447,1.6645 1.41596,3.5718 1.41601,6.3593 -6e-5,2.021 -0.29426,6.4794 -0.94336,12.6465 a 10.254344,10.254344 0 0 0 -0.0234,0.2442 c -0.49461,6.0991 -1.07461,12.6252 -1.73633,19.5742 a 10.254344,10.254344 0 0 0 -0.0195,0.2246 c -0.49213,6.7246 -1.06756,13.2819 -1.72266,19.6699 a 10.254344,10.254344 0 0 0 -0.0215,0.2403 c -0.51021,6.4617 -0.78331,11.432 -0.78321,15.2753 -10e-5,4.1487 0.39101,8.1 1.27344,11.8497 a 10.254344,10.254344 0 0 0 0.19336,0.7089 c 1.27986,4.0962 3.53358,7.9068 6.53711,10.9102 3.33465,3.3349 7.51646,5.4683 12.02344,6.8203 4.77646,1.4329 9.97668,1.9336 15.94531,1.9336 h 7.96875 c 1.88084,0 3.51525,-0.052 5.50586,-0.4492 a 10.254344,10.254344 0 0 0 0.006,0 c 2.1781,-0.4357 5.0574,-1.7045 7.25586,-4.1914 2.25474,-2.434 3.21949,-5.17 3.5957,-7.4258 a 10.254344,10.254344 0 0 0 0,-0 c 0.23661,-1.4207 0.41746,-2.9918 0.59766,-4.9727 a 10.254344,10.254344 0 0 0 0.0195,-0.248 c 0.66407,-9.963 1.24787,-18.2676 1.74414,-24.8828 0.50093,-6.6807 0.92176,-12.6195 1.25781,-17.8262 a 10.254344,10.254344 0 0 0 0,-0.022 c 0.47641,-7.6246 1.3226,-14.6005 2.55078,-20.8945 1.21939,-6.2499 2.79869,-11.4631 4.59375,-15.6055 1.71081,-3.9481 3.61443,-6.5301 5.42969,-8.1543 1.44462,-1.2922 2.30098,-1.6366 4.38086,-1.6367 0.97653,0 0.97282,-0.076 1.08008,-0.1445 0.86168,1.6244 1.38465,3.525 1.38476,6.3593 -8e-5,0.072 -0.0984,2.1962 -0.41211,5.1778 a 10.254344,10.254344 0 0 0 -0.041,0.5332 c -0.15092,2.8645 -0.46542,6.4047 -0.94727,10.582 a 10.254344,10.254344 0 0 0 -0.0351,0.3574 c -0.32611,4.0744 -0.73862,8.5776 -1.23243,13.5176 a 10.254344,10.254344 0 0 0 -0.0273,0.3379 c -0.32418,4.8602 -0.73099,9.5412 -1.21484,14.0586 a 10.254344,10.254344 0 0 0 -0.0312,0.3613 c -0.33048,4.6245 -0.66349,8.9325 -0.99219,12.8789 a 10.254344,10.254344 0 0 0 -0.0254,0.4239 c -0.16972,4.0687 -0.25996,7.2185 -0.25977,9.6464 -2e-4,4.1489 0.39088,8.0999 1.27344,11.8497 a 10.254344,10.254344 0 0 0 0.19336,0.7089 c 1.25799,4.0265 3.46084,7.8654 6.50586,10.9102 3.37552,3.3759 7.56325,5.4734 12.05273,6.8203 4.75954,1.4279 9.94731,1.9336 15.91602,1.9336 h 8 c 1.88078,0 3.51541,-0.052 5.50586,-0.4492 a 10.254344,10.254344 0 0 0 0.006,0 c 2.17685,-0.4355 5.05412,-1.7021 7.25195,-4.1856 2.25907,-2.4356 3.22295,-5.1743 3.59961,-7.4316 a 10.254344,10.254344 0 0 0 0,-0 c 0.23638,-1.42 0.41739,-2.992 0.59766,-4.9727 a 10.254344,10.254344 0 0 0 0.0254,-0.3281 c 0.49338,-8.3909 1.1223,-17.1132 1.94336,-26.1426 a 10.254344,10.254344 0 0 0 0.002,-0.016 c 0.83503,-9.3546 1.59038,-18.3945 2.25977,-27.0937 a 10.254344,10.254344 0 0 0 0.002,-0.016 c 0.66697,-8.8403 1.25388,-17.0006 1.75586,-24.5273 0.50927,-7.6419 0.7732,-14.1602 0.77344,-19.6504 -2.6e-4,-7.8407 -1.21703,-14.9702 -4.19727,-21.2422 -2.55746,-5.871 -6.30948,-11.0723 -11.31055,-14.8828 a 10.254344,10.254344 0 0 0 -0.002,0 c -4.75605,-3.6236 -10.38599,-6.0603 -16.45703,-7.3379 -5.48905,-1.3474 -11.17337,-1.9783 -16.97461,-1.9785 -10.66553,2e-4 -20.39328,2.2025 -28.50586,7.2168 -3.70245,2.2136 -7.00697,5.1299 -10.08203,8.5059 -2.79551,-3.4477 -6.00792,-6.5199 -9.79297,-8.7911 a 10.254344,10.254344 0 0 0 0,-0 c -4.42681,-2.6559 -9.32547,-4.4489 -14.48242,-5.4805 a 10.254344,10.254344 0 0 0 -0.002,0 c -4.85919,-0.9716 -9.88164,-1.449 -15.00977,-1.4492 z m 461.19727,4.4023 c 0.0469,0.014 0.0885,0.033 0.0625,0.027 -0.0218,-0.01 -0.0407,-0.021 -0.0625,-0.027 z m -105.67383,1.3301 0.3457,0.1973 c -0.0728,-0.044 -0.15547,-0.068 -0.22852,-0.1113 -0.0429,-0.024 -0.0741,-0.062 -0.11718,-0.086 z m -314.55078,11.9082 c -0.0109,-0.01 -0.11942,-0.1219 0.0781,0.1211 -0.0284,-0.039 -0.0496,-0.082 -0.0781,-0.1211 z m 161.57422,35.9531 a 10.254344,10.254344 0 0 0 0.24609,0.3125 c 0.86278,1.062 0.9531,1.409 0.95312,2.5039 -3e-5,2.5363 0.0426,2.9335 -4.17382,5.0958 a 10.254344,10.254344 0 0 0 -0.0977,0.049 c -1.90611,1.0032 -4.34696,1.8437 -7.16406,2.5234 0.58852,-1.6975 1.22928,-3.2884 1.95507,-4.6914 1.237,-2.093 2.53769,-3.582 3.92188,-4.6894 a 10.254344,10.254344 0 0 0 0.0586,-0.049 c 0.89879,-0.7302 1.37287,-0.953 3.00391,-0.9531 2.21247,10e-5 1.4435,0.094 1.29688,-0.1016 z m 136.29687,0.1016 c 2.64828,10e-5 3.8434,0.5342 4.44141,0.9453 1.25741,0.8646 2.06387,1.7686 2.85742,3.3555 0.88275,1.7664 1.61497,4.1373 1.99609,7.1855 a 10.254344,10.254344 0 0 0 0.006,0.055 c 0.43811,3.3596 0.66398,6.8951 0.66406,10.6426 -8e-5,13.8683 -2.54753,22.9315 -5.43359,27.1113 -3.4841,5.0459 -5.73156,6.0723 -9.53125,6.0723 -2.1703,0 -2.99953,-0.3873 -3.69336,-0.8867 -1.04927,-0.8736 -2.02904,-2.0736 -2.92578,-4.0664 -1.06008,-2.3557 -1.88883,-5.145 -2.43164,-8.4375 -0.43393,-3.6827 -0.66412,-7.4327 -0.66406,-11.293 -6e-5,-11.361 1.9213,-19.6063 4.73437,-24.7793 2.70441,-4.8529 4.5187,-5.9042 9.98047,-5.9043 z m -77.9707,18.4922 c 0.008,-0.023 0.0606,-0.1462 -0.0762,0.1191 0.0233,-0.041 0.0529,-0.078 0.0762,-0.1191 z m -1.3418,2.0273 c -4e-4,0 4e-4,0.01 0,0.01 -8e-4,0.01 -0.003,0.014 -0.004,0.022 z m -44.01953,27.6778 c -0.57398,0.5293 -1.18038,1.0421 -1.63672,1.6289 a 10.254344,10.254344 0 0 0 -0.10938,0.1426 c -0.86985,1.1596 -1.94975,2.5502 -3.20507,4.0957 -0.61067,0.6674 -1.76904,1.6335 -3.46875,2.6718 -0.0469,0.01 -1.67014,0.631 -4.8418,0.6309 -3.13692,1e-4 -5.13733,-0.5433 -6.38281,-1.166 -1.83449,-0.9172 -2.96759,-1.8884 -3.77344,-2.9141 -0.30286,-0.3854 -0.54791,-0.8326 -0.81445,-1.2539 5.18601,-0.3756 10.62925,-1.0271 16.45312,-2.0254 a 10.254344,10.254344 0 0 0 0.2793,-0.051 c 2.49223,-0.4984 4.99463,-1.122 7.5,-1.7597 z"
       id="path4203"
       style="font-style:normal;font-variant:normal;font-weight:normal;font-stretch:normal;font-size:249.584px;line-height:125%;font-family:'Poetsen One';-inkscape-font-specification:'Poetsen One';text-align:start;letter-spacing:0px;word-spacing:0px;writing-mode:lr-tb;text-anchor:start;fill:#000000;fill-opacity:1;stroke:none"
       inkscape:original="M 577.75 2423.9375 C 569.59689 2423.9377 563.10651 2425.8607 558.28125 2429.6875 C 553.45594 2433.5146 551.06248 2438.7508 551.0625 2445.4062 C 551.06248 2456.0552 557.80369 2461.3751 571.28125 2461.375 C 580.09984 2461.3751 586.72618 2459.3685 591.21875 2455.375 C 595.87759 2451.2155 598.21868 2446.0629 598.21875 2439.9062 C 598.21868 2435.0811 596.54647 2431.2663 593.21875 2428.4375 C 590.0573 2425.4426 584.90469 2423.9377 577.75 2423.9375 z M 489.3125 2427.4375 C 487.98128 2427.4377 487.06157 2427.5215 486.5625 2427.6875 C 486.06323 2427.6877 485.64518 2427.8549 485.3125 2428.1875 C 484.64684 2428.8532 484.22879 2431.0271 484.0625 2434.6875 C 483.72962 2440.0121 483.39517 2444.7468 483.0625 2448.9062 C 482.72962 2453.0662 482.39518 2457.2154 482.0625 2461.375 C 481.89601 2465.5348 481.64518 2470.0185 481.3125 2474.8438 C 480.97962 2479.6692 480.64518 2485.3547 480.3125 2491.8438 C 478.98129 2484.6892 475.75172 2479.6725 470.59375 2476.8438 C 465.60198 2473.8488 458.94439 2472.3752 450.625 2472.375 C 441.97269 2472.3752 434.39538 2473.6815 427.90625 2476.3438 C 421.58341 2479.0062 416.09636 2482.6013 411.4375 2487.0938 C 406.94496 2491.4199 403.18249 2496.4054 400.1875 2502.0625 C 397.19248 2507.7199 394.88263 2513.5413 393.21875 2519.5312 C 391.55485 2525.5213 390.38429 2531.51 389.71875 2537.5 C 389.05318 2543.3237 388.71874 2548.6435 388.71875 2553.4688 C 388.71874 2564.2841 389.9729 2573.5336 392.46875 2581.1875 C 395.13097 2588.8414 398.61136 2595.1645 402.9375 2600.1562 C 407.42998 2605.148 412.58259 2608.7955 418.40625 2611.125 C 424.39622 2613.4544 430.63577 2614.625 437.125 2614.625 C 446.27635 2614.625 453.85367 2612.6184 459.84375 2608.625 C 466.00008 2604.6317 470.5674 2599.479 473.5625 2593.1562 C 473.5624 2596.9833 474.14768 2600.1604 475.3125 2602.6562 C 476.64352 2604.9859 478.39934 2606.8775 480.5625 2608.375 C 482.89185 2609.7062 485.56738 2610.7095 488.5625 2611.375 C 491.72378 2611.8742 495.03696 2612.125 498.53125 2612.125 L 507.53125 2612.125 C 509.86057 2612.125 511.2507 2611.7905 511.75 2611.125 C 512.24904 2610.4594 512.66709 2609.1217 513 2607.125 C 513.16626 2605.2947 513.41709 2601.6472 513.75 2596.1562 C 514.24904 2590.499 514.83431 2583.8414 515.5 2576.1875 C 516.16542 2568.3672 516.83431 2559.8701 517.5 2550.7188 C 518.16542 2541.401 518.83431 2532.0993 519.5 2522.7812 C 520.16542 2513.2971 520.8343 2504.1312 521.5 2495.3125 C 522.16541 2486.494 522.75069 2478.6971 523.25 2471.875 C 523.74903 2464.8868 524.16708 2459.2848 524.5 2455.125 C 524.83264 2450.9654 524.99986 2448.9064 525 2448.9062 C 524.99986 2446.0777 524.58181 2443.4023 523.75 2440.9062 C 522.91791 2438.2441 521.49654 2435.9344 519.5 2433.9375 C 517.5032 2431.941 514.82765 2430.3524 511.5 2429.1875 C 508.17208 2428.023 504.02281 2427.4377 499.03125 2427.4375 L 489.3125 2427.4375 z M 120 2472.375 C 111.68044 2472.3752 104.46883 2473.9324 98.3125 2477.0938 C 92.15603 2480.2553 86.63772 2486.3276 81.8125 2495.3125 C 81.64605 2492.6504 81.17564 2490.0895 80.34375 2487.5938 C 79.51175 2485.0981 78.09037 2482.9241 76.09375 2481.0938 C 74.09703 2479.2636 71.5051 2477.7586 68.34375 2476.5938 C 65.18231 2475.4291 61.11665 2474.8439 56.125 2474.8438 L 46.375 2474.8438 C 44.21191 2474.8439 42.9054 2475.0948 42.40625 2475.5938 C 41.74068 2476.2595 41.32262 2478.4333 41.15625 2482.0938 C 39.82512 2500.3967 38.65457 2515.8021 37.65625 2528.2812 C 36.82429 2540.5941 36.07179 2550.8157 35.40625 2558.9688 C 34.74068 2566.9554 34.23901 2573.2786 33.90625 2577.9375 C 33.73986 2582.43 33.65624 2585.9105 33.65625 2588.4062 C 33.65624 2592.2333 33.99068 2595.6613 34.65625 2598.6562 C 35.48818 2601.485 36.82596 2603.8783 38.65625 2605.875 C 40.65291 2607.8717 43.21358 2609.4603 46.375 2610.625 C 49.70276 2611.6233 53.9669 2612.125 59.125 2612.125 L 68.09375 2612.125 C 70.25676 2612.125 71.67815 2611.7905 72.34375 2611.125 C 73.00926 2610.4594 73.42731 2609.1217 73.59375 2607.125 C 73.92648 2601.967 74.42814 2595.9781 75.09375 2589.1562 C 75.75925 2582.1678 76.34452 2574.8725 76.84375 2567.2188 C 77.34286 2559.0657 78.17897 2551.2376 79.34375 2543.75 C 80.6748 2536.2625 82.31577 2529.7722 84.3125 2524.2812 C 86.47549 2518.6242 89.15104 2514.1404 92.3125 2510.8125 C 95.47383 2507.4848 99.28866 2505.8126 103.78125 2505.8125 C 108.77284 2505.8126 112.11727 2507.4848 113.78125 2510.8125 C 115.61144 2514.1404 116.53116 2517.9552 116.53125 2522.2812 C 116.53116 2525.11 116.19671 2529.6773 115.53125 2536 C 115.03199 2542.1564 114.44672 2548.7305 113.78125 2555.7188 C 113.28199 2562.5408 112.69672 2569.1984 112.03125 2575.6875 C 111.532 2582.0104 111.28116 2586.8284 111.28125 2590.1562 C 111.28116 2593.6505 111.6156 2596.8277 112.28125 2599.6562 C 113.1131 2602.3185 114.45088 2604.5447 116.28125 2606.375 C 118.11144 2608.2053 120.67212 2609.6267 124 2610.625 C 127.32769 2611.6233 131.67544 2612.125 137 2612.125 L 144.96875 2612.125 C 146.46613 2612.125 147.63668 2612.041 148.46875 2611.875 C 149.30057 2611.7086 149.88584 2611.3741 150.21875 2610.875 C 150.71779 2610.3758 151.05224 2609.6234 151.21875 2608.625 C 151.38501 2607.6267 151.55223 2606.2367 151.71875 2604.4062 C 152.38418 2594.4228 152.96945 2586.0931 153.46875 2579.4375 C 153.96779 2572.782 154.38584 2566.8769 154.71875 2561.7188 C 155.21778 2553.7321 156.10626 2546.3221 157.4375 2539.5 C 158.76848 2532.6782 160.5243 2526.7731 162.6875 2521.7812 C 164.85042 2516.7897 167.52595 2512.8913 170.6875 2510.0625 C 173.84874 2507.234 177.57997 2505.8126 181.90625 2505.8125 C 186.89776 2505.8126 190.24219 2507.4848 191.90625 2510.8125 C 193.73636 2514.1404 194.62483 2517.9552 194.625 2522.2812 C 194.62483 2523.2796 194.48886 2525.3699 194.15625 2528.5312 C 193.98969 2531.6926 193.65524 2535.424 193.15625 2539.75 C 192.8233 2543.9098 192.40525 2548.4769 191.90625 2553.4688 C 191.5733 2558.4605 191.15525 2563.2787 190.65625 2567.9375 C 190.3233 2572.5965 189.98886 2576.9442 189.65625 2580.9375 C 189.48967 2584.9309 189.40608 2587.9932 189.40625 2590.1562 C 189.40608 2593.6505 189.74053 2596.8277 190.40625 2599.6562 C 191.23803 2602.3185 192.54454 2604.5447 194.375 2606.375 C 196.20511 2608.2053 198.79704 2609.6267 202.125 2610.625 C 205.45261 2611.6233 209.7691 2612.125 215.09375 2612.125 L 223.09375 2612.125 C 224.59105 2612.125 225.76161 2612.041 226.59375 2611.875 C 227.4255 2611.7086 228.01077 2611.3741 228.34375 2610.875 C 228.84272 2610.3758 229.17715 2609.6234 229.34375 2608.625 C 229.50993 2607.6267 229.67715 2606.2367 229.84375 2604.4062 C 230.34271 2595.9205 230.98034 2587.0889 231.8125 2577.9375 C 232.64424 2568.6197 233.39673 2559.621 234.0625 2550.9688 C 234.72784 2542.1501 235.31312 2534.0189 235.8125 2526.5312 C 236.31146 2519.044 236.56228 2512.7207 236.5625 2507.5625 C 236.56228 2500.7406 235.47535 2495.0864 233.3125 2490.5938 C 231.31562 2485.9349 228.58772 2482.256 225.09375 2479.5938 C 221.59938 2476.9315 217.4501 2475.0923 212.625 2474.0938 C 207.96591 2472.9293 203.03289 2472.3752 197.875 2472.375 C 188.55703 2472.3752 180.84375 2474.2669 174.6875 2478.0938 C 168.53095 2481.7544 162.84543 2488.412 157.6875 2498.0625 C 156.68903 2493.0709 155.04807 2489.0052 152.71875 2485.8438 C 150.38917 2482.5161 147.54641 2479.8405 144.21875 2477.8438 C 140.89085 2475.8472 137.15962 2474.4571 133 2473.625 C 128.84016 2472.7932 124.49241 2472.3752 120 2472.375 z M 329.75 2472.375 C 318.93463 2472.3752 309.63274 2473.8488 301.8125 2476.8438 C 293.99216 2479.8389 287.33456 2483.7685 281.84375 2488.5938 C 276.35288 2493.4192 271.83791 2498.9062 268.34375 2505.0625 C 265.01595 2511.0526 262.37165 2517.1249 260.375 2523.2812 C 258.5447 2529.4378 257.29055 2535.4265 256.625 2541.25 C 255.95943 2547.0737 255.62499 2552.059 255.625 2556.2188 C 255.62499 2567.5332 257.46442 2576.95 261.125 2584.4375 C 264.78555 2591.925 269.43649 2597.9138 275.09375 2602.4062 C 280.91735 2606.8987 287.40772 2610.0447 294.5625 2611.875 C 301.88357 2613.7053 309.21006 2614.625 316.53125 2614.625 C 322.02202 2614.625 327.6763 2614.1234 333.5 2613.125 C 339.32354 2612.1267 344.55975 2610.5381 349.21875 2608.375 C 354.04393 2606.212 357.94239 2603.4006 360.9375 2599.9062 C 363.9324 2596.412 365.43738 2592.2315 365.4375 2587.4062 C 365.43738 2583.7456 364.60127 2580.7669 362.9375 2578.4375 C 361.27349 2576.108 359.38171 2574.2687 357.21875 2572.9375 C 355.05559 2571.6064 352.88171 2570.7703 350.71875 2570.4375 C 348.72198 2569.9383 347.3006 2569.6876 346.46875 2569.6875 C 344.63837 2569.6876 343.13338 2570.44 341.96875 2571.9375 C 340.97032 2573.2686 339.74741 2574.8572 338.25 2576.6875 C 336.75241 2578.3514 334.74576 2579.94 332.25 2581.4375 C 329.92047 2582.7686 326.57605 2583.4376 322.25 2583.4375 C 317.92381 2583.4376 314.27619 2582.685 311.28125 2581.1875 C 308.28618 2579.69 305.86147 2577.767 304.03125 2575.4375 C 302.20091 2573.1081 300.81078 2570.4636 299.8125 2567.4688 C 298.9805 2564.3074 298.56245 2561.1301 298.5625 2557.9688 C 301.22468 2557.9688 304.9559 2557.8848 309.78125 2557.7188 C 314.77287 2557.3861 320.1763 2556.7171 326 2555.7188 C 331.82355 2554.5541 337.72864 2552.9655 343.71875 2550.9688 C 349.70866 2548.9722 355.1121 2546.2443 359.9375 2542.75 C 364.92906 2539.0895 368.94237 2534.6058 371.9375 2529.2812 C 375.09877 2523.9569 376.68737 2517.4665 376.6875 2509.8125 C 376.68737 2504.6545 375.85126 2499.8051 374.1875 2495.3125 C 372.52348 2490.8201 369.84794 2486.9216 366.1875 2483.5938 C 362.52682 2480.0997 357.70865 2477.3405 351.71875 2475.3438 C 345.72863 2473.3472 338.40216 2472.3752 329.75 2472.375 z M 556.03125 2474.8438 C 553.86817 2474.8439 552.56165 2475.0948 552.0625 2475.5938 C 551.39692 2476.2595 550.97887 2478.4333 550.8125 2482.0938 C 549.48137 2500.3967 548.31082 2515.8021 547.3125 2528.2812 C 546.48054 2540.5941 545.72805 2550.8157 545.0625 2558.9688 C 544.39693 2566.9554 543.89526 2573.2786 543.5625 2577.9375 C 543.39611 2582.43 543.31249 2585.9105 543.3125 2588.4062 C 543.31249 2592.2333 543.64693 2595.6613 544.3125 2598.6562 C 545.14443 2601.485 546.4822 2603.8783 548.3125 2605.875 C 550.30915 2607.8717 552.86983 2609.4603 556.03125 2610.625 C 559.35901 2611.6233 563.62315 2612.125 568.78125 2612.125 L 577.75 2612.125 C 579.91301 2612.125 581.33439 2611.7905 582 2611.125 C 582.66551 2610.4594 583.08356 2609.1217 583.25 2607.125 C 584.74745 2589.155 586.00161 2573.8643 587 2561.2188 C 587.99828 2548.4066 588.75078 2537.7673 589.25 2529.2812 C 589.9155 2520.6292 590.38591 2513.8043 590.71875 2508.8125 C 591.05147 2503.8209 591.21869 2500.0585 591.21875 2497.5625 C 591.21869 2494.0685 590.83189 2490.9225 590 2488.0938 C 589.33439 2485.2652 587.99662 2482.8405 586 2480.8438 C 584.16967 2478.8472 581.57774 2477.3423 578.25 2476.3438 C 575.08856 2475.3456 570.93928 2474.8439 565.78125 2474.8438 L 556.03125 2474.8438 z M 321.25 2505.5625 C 325.57604 2505.5626 328.75325 2506.9003 330.75 2509.5625 C 332.91298 2512.2248 333.99992 2515.2036 334 2518.5312 C 333.99992 2524.6878 330.73911 2529.4223 324.25 2532.75 C 317.92714 2536.0778 309.62858 2537.8337 299.3125 2538 C 299.81162 2534.5059 300.48051 2530.8583 301.3125 2527.0312 C 302.31079 2523.2045 303.6173 2519.6928 305.28125 2516.5312 C 307.11147 2513.37 309.28535 2510.8093 311.78125 2508.8125 C 314.44342 2506.6496 317.58936 2505.5626 321.25 2505.5625 z M 458.84375 2505.5625 C 463.0034 2505.5626 466.43144 2506.4824 469.09375 2508.3125 C 471.75589 2510.1429 473.81491 2512.5364 475.3125 2515.5312 C 476.80991 2518.5264 477.81324 2522.0381 478.3125 2526.0312 C 478.81157 2529.8583 479.06241 2533.8404 479.0625 2538 C 479.06241 2552.9751 476.63769 2563.9492 471.8125 2570.9375 C 466.98712 2577.9259 460.99841 2581.4375 453.84375 2581.4375 C 449.85033 2581.4375 446.53716 2580.4342 443.875 2578.4375 C 441.3791 2576.4408 439.37245 2573.7653 437.875 2570.4375 C 436.37744 2567.1097 435.2905 2563.3784 434.625 2559.2188 C 434.12578 2555.059 433.87494 2550.8262 433.875 2546.5 C 433.87494 2534.0209 435.8816 2524.1025 439.875 2516.7812 C 444.03467 2509.294 450.35782 2505.5626 458.84375 2505.5625 z "
       inkscape:radius="10.253319"
       sodipodi:type="inkscape:offset" />
    <path
       id="path4205"
       d="m 2162.261,722.11967 c -9.2765,2.2e-4 -16.6611,2.18817 -22.1511,6.54222 -5.4902,4.35439 -8.2134,10.31202 -8.2134,17.88439 0,12.11619 7.67,18.16906 23.0044,18.16894 10.0336,1.2e-4 17.573,-2.28294 22.6845,-6.82667 5.3008,-4.73258 7.9645,-10.59521 7.9645,-17.60005 0,-5.48989 -1.9026,-9.83028 -5.689,-13.04883 -3.5969,-3.40753 -9.4594,-5.11978 -17.5999,-5.12 z m -100.6223,3.98222 c -1.5145,2.3e-4 -2.5609,0.0956 -3.1288,0.28445 -0.5681,2.2e-4 -1.0437,0.19046 -1.4222,0.56888 -0.7575,0.75742 -1.2331,3.23084 -1.4223,7.39556 -0.3787,6.05821 -0.7592,11.44513 -1.1377,16.17772 -0.3788,4.73305 -0.7593,9.45403 -1.1378,14.18672 -0.1895,4.73293 -0.4748,9.83439 -0.8534,15.3245 -0.3787,5.49024 -0.7592,11.95907 -1.1378,19.34223 -1.5145,-8.14035 -5.1891,-13.84823 -11.0578,-17.06666 -5.6795,-3.40765 -13.2543,-5.08428 -22.7199,-5.08451 -9.8444,2.3e-4 -18.4657,1.48662 -25.8489,4.51561 -7.194,3.02923 -13.4371,7.11965 -18.7378,12.23111 -5.1115,4.92215 -9.3924,10.59453 -12.8,17.03105 -3.4076,6.43687 -6.0358,13.06034 -7.9289,19.8755 -1.8931,6.81541 -3.225,13.62922 -3.9822,20.4445 -0.7572,6.62608 -1.1378,12.67883 -1.1378,18.16895 0,12.30541 1.427,22.82928 4.2667,31.53772 3.0291,8.70844 6.9889,15.90272 11.9111,21.58217 5.1115,5.67956 10.974,9.82961 17.6,12.48006 6.8153,2.65034 13.9146,3.98222 21.2978,3.98222 10.4122,0 19.0335,-2.28306 25.8489,-6.82667 7.0046,-4.54349 12.2011,-10.40611 15.6088,-17.60005 -10e-5,4.35427 0.6659,7.96922 1.9912,10.80888 1.5143,2.65058 3.5121,4.80291 5.9733,6.50672 2.6502,1.51462 5.6945,2.65615 9.1022,3.41334 3.5969,0.56798 7.3665,0.85333 11.3422,0.85333 h 10.24 c 2.6503,0 4.232,-0.38059 4.8001,-1.13777 0.5677,-0.75731 1.0434,-2.27932 1.4222,-4.55111 0.1891,-2.08248 0.4745,-6.23263 0.8533,-12.48006 0.5678,-6.43664 1.2337,-14.01151 1.9911,-22.71994 0.7571,-8.89776 1.5181,-18.56547 2.2756,-28.97772 0.7571,-10.60159 1.5182,-21.18497 2.2755,-31.78679 0.7571,-10.79079 1.5182,-21.21955 2.2756,-31.25328 0.757,-10.03349 1.4231,-18.90462 1.9911,-26.66666 0.5677,-7.95102 1.0435,-14.32484 1.4222,-19.05777 0.3785,-4.73271 0.5687,-7.07539 0.5689,-7.07562 -2e-4,-3.21821 -0.4758,-6.26222 -1.4222,-9.10222 -0.9468,-3.02888 -2.564,-5.65681 -4.8356,-7.92883 -2.2719,-2.27157 -5.3161,-4.07905 -9.1022,-5.40445 -3.7863,-1.32494 -8.5074,-1.99088 -14.1867,-1.99111 z m -420.1955,51.12889 c -9.4658,2.3e-4 -17.671,1.77209 -24.6755,5.36894 -7.0048,3.59709 -13.2833,10.50602 -18.7734,20.72883 -0.1894,-3.02887 -0.7246,-5.94249 -1.6711,-8.78216 -0.9467,-2.83955 -2.5638,-5.31308 -4.8356,-7.39555 -2.2718,-2.08236 -5.2208,-3.79472 -8.8177,-5.12 -3.597,-1.32518 -8.2229,-1.991 -13.9022,-1.99112 h -11.0934 c -2.4611,1.2e-4 -3.9476,0.28559 -4.5156,0.85334 -0.7572,0.75741 -1.2328,3.23072 -1.4222,7.39556 -1.5145,20.82463 -2.8463,38.35255 -3.9823,52.551 -0.9464,14.00934 -1.8026,25.63936 -2.56,34.91567 -0.7571,9.08708 -1.328,16.28136 -1.7066,21.58216 -0.1894,5.11147 -0.2844,9.07138 -0.2844,11.91105 0,4.35439 0.3806,8.25469 1.1377,11.66222 0.9467,3.21843 2.4687,5.94159 4.5512,8.2134 2.2717,2.27179 5.1852,4.07927 8.7822,5.40443 3.7862,1.13586 8.6379,1.70667 14.5067,1.70667 h 10.2044 c 2.461,0 4.0783,-0.38059 4.8355,-1.13777 0.7572,-0.75731 1.233,-2.27932 1.4223,-4.55111 0.3786,-5.86867 0.9493,-12.6827 1.7067,-20.44451 0.7571,-7.95124 1.423,-16.25156 1.991,-24.95988 0.5679,-9.27641 1.5193,-18.18306 2.8445,-26.70228 1.5144,-8.51912 3.3815,-15.90363 5.6533,-22.15117 2.461,-6.4364 5.5052,-11.53797 9.1023,-15.32438 3.5968,-3.78619 7.9373,-5.68878 13.0489,-5.6889 5.6792,1.2e-4 9.4846,1.90271 11.3777,5.6889 2.0823,3.78641 3.1288,8.12669 3.1289,13.04883 -10e-5,3.21854 -0.3806,8.41511 -1.1378,15.60894 -0.568,7.00462 -1.2339,14.48448 -1.9911,22.43561 -0.568,7.76192 -1.2339,15.33679 -1.9911,22.71995 -0.568,7.19405 -0.8534,12.67586 -0.8533,16.46217 -10e-5,3.97573 0.3805,7.59067 1.1377,10.80888 0.9466,3.02911 2.4687,5.56203 4.5512,7.6445 2.0823,2.08248 4.9958,3.69971 8.7822,4.83555 3.7862,1.13586 8.733,1.70667 14.7911,1.70667 h 9.0667 c 1.7036,0 3.0356,-0.0956 3.9821,-0.28444 0.9466,-0.18933 1.6124,-0.56992 1.9912,-1.13778 0.5679,-0.56798 0.9484,-1.42404 1.1378,-2.56 0.1891,-1.13584 0.3794,-2.71747 0.5689,-4.80005 0.7572,-11.35889 1.423,-20.83625 1.9911,-28.40883 0.5678,-7.57248 1.0434,-14.29118 1.4222,-20.15995 0.5679,-9.08709 1.5787,-17.51803 3.0933,-25.28005 1.5145,-7.7617 3.5121,-14.4805 5.9734,-20.16007 2.4609,-5.67932 5.505,-10.11473 9.1022,-13.33327 3.5967,-3.2182 7.8422,-4.83544 12.7644,-4.83556 5.6793,1.2e-4 9.4845,1.90271 11.3778,5.6889 2.0823,3.78641 3.0932,8.12669 3.0934,13.04883 -2e-4,1.13596 -0.155,3.51425 -0.5334,7.1111 -0.1894,3.59697 -0.57,7.84248 -1.1378,12.7645 -0.3788,4.73293 -0.8545,9.92939 -1.4222,15.60895 -0.3787,5.67945 -0.8545,11.16149 -1.4223,16.46217 -0.3787,5.30091 -0.7593,10.24763 -1.1377,14.79111 -0.1894,4.5436 -0.2846,8.02782 -0.2844,10.48884 -2e-4,3.97573 0.3803,7.59067 1.1378,10.80888 0.9463,3.02911 2.4328,5.56203 4.5155,7.6445 2.0823,2.08248 5.0312,3.69971 8.8178,4.83555 3.7861,1.13586 8.6973,1.70667 14.7555,1.70667 h 9.1022 c 1.7036,0 3.0355,-0.0956 3.9823,-0.28444 0.9463,-0.18933 1.6123,-0.56992 1.991,-1.13778 0.5678,-0.56798 0.9483,-1.42404 1.1379,-2.56 0.1891,-1.13584 0.3793,-2.71747 0.5688,-4.80005 0.5678,-9.65485 1.2932,-19.70324 2.2401,-30.1155 0.9463,-10.60159 1.8025,-20.84 2.56,-30.68439 0.7569,-10.0336 1.4229,-19.28534 1.9911,-27.80456 0.5676,-8.51888 0.8531,-15.71328 0.8533,-21.58216 -2e-4,-7.76181 -1.2369,-14.19503 -3.6977,-19.30662 -2.272,-5.30067 -5.3758,-9.48656 -9.3512,-12.51555 -3.9758,-3.02899 -8.6967,-5.12171 -14.1866,-6.25778 -5.301,-1.32494 -10.9137,-1.95538 -16.7822,-1.95561 -10.6018,2.3e-4 -19.3778,2.15268 -26.3823,6.50672 -7.0048,4.16495 -13.4736,11.73982 -19.3422,22.71995 -1.1361,-5.67934 -3.003,-10.30509 -5.6533,-13.90216 -2.6505,-3.78619 -5.885,-6.83043 -9.6712,-9.10223 -3.7864,-2.27168 -8.0317,-3.85332 -12.7644,-4.80006 -4.733,-0.9464 -9.6797,-1.42199 -14.7911,-1.42222 z m 238.6489,0 c -12.3055,2.3e-4 -22.889,1.67686 -31.7867,5.08451 -8.8978,3.40775 -16.4728,7.87876 -22.72,13.36888 -6.2474,5.49023 -11.3844,11.73322 -15.36,18.73772 -3.7864,6.8154 -6.7949,13.72433 -9.0667,20.72883 -2.0824,7.00474 -3.5094,13.81866 -4.2666,20.4445 -0.7573,6.62608 -1.1378,12.29824 -1.1378,17.03117 0,12.87328 2.0928,23.5875 6.2578,32.10661 4.1649,8.51912 9.4566,15.33304 15.8933,20.44439 6.6259,5.11146 14.0105,8.69092 22.1511,10.77339 8.3298,2.08248 16.6656,3.12889 24.9956,3.12889 6.2472,0 12.6806,-0.57071 19.3066,-1.70667 6.6259,-1.13584 12.5836,-2.94331 17.8845,-5.40445 5.4899,-2.46101 9.9255,-5.65987 13.3333,-9.6356 3.4076,-3.97563 5.1199,-8.73211 5.12,-14.22223 -10e-5,-4.16495 -0.9513,-7.55405 -2.8444,-10.20438 -1.8933,-2.65046 -4.0457,-4.74317 -6.5067,-6.25779 -2.4611,-1.51449 -4.9345,-2.46579 -7.3955,-2.84443 -2.2719,-0.56798 -3.8891,-0.85323 -4.8357,-0.85334 -2.0824,1.1e-4 -3.7947,0.85617 -5.12,2.56 -1.1359,1.5145 -2.5273,3.32197 -4.231,5.40444 -1.7039,1.89315 -3.9871,3.70063 -6.8267,5.40445 -2.6504,1.5145 -6.4558,2.27567 -11.3778,2.27555 -4.9222,1.2e-4 -9.0723,-0.85617 -12.48,-2.56 -3.4077,-1.70382 -6.1664,-3.89176 -8.2488,-6.54222 -2.0826,-2.65033 -3.6641,-5.65908 -4.8,-9.06661 -0.9467,-3.59697 -1.4223,-7.21203 -1.4222,-10.80889 3.029,0 7.2742,-0.0956 12.7644,-0.28444 5.6794,-0.37854 11.8273,-1.13972 18.4533,-2.27556 6.6259,-1.32517 13.3446,-3.13264 20.16,-5.40444 6.8151,-2.27168 12.9632,-5.37543 18.4533,-9.35117 5.6793,-4.16483 10.2457,-9.26628 13.6534,-15.3245 3.5969,-6.05799 5.4043,-13.4425 5.4044,-22.15105 -10e-5,-5.86867 -0.9514,-11.3862 -2.8444,-16.49779 -1.8933,-5.11134 -4.9375,-9.54685 -9.1022,-13.33326 -4.165,-3.97541 -9.6471,-7.11487 -16.4623,-9.38667 -6.8154,-2.27169 -15.1513,-3.37761 -24.9955,-3.37784 z m 257.4578,2.80894 c -2.461,1.2e-4 -3.9477,0.28559 -4.5156,0.85334 -0.7573,0.75741 -1.2329,3.23072 -1.4222,7.39556 -1.5145,20.82463 -2.8463,38.35255 -3.9822,52.551 -0.9467,14.00934 -1.8028,25.63936 -2.56,34.91567 -0.7574,9.08708 -1.3281,16.28136 -1.7067,21.58216 -0.1893,5.11147 -0.2845,9.07138 -0.2845,11.91105 0,4.35439 0.3805,8.25469 1.1378,11.66222 0.9466,3.21843 2.4687,5.94159 4.5512,8.2134 2.2717,2.27179 5.1852,4.07927 8.7822,5.40443 3.7862,1.13586 8.6378,1.70667 14.5066,1.70667 h 10.2045 c 2.461,0 4.0782,-0.38059 4.8355,-1.13777 0.7573,-0.75731 1.233,-2.27932 1.4222,-4.55111 1.7038,-20.44587 3.1308,-37.84329 4.2667,-52.23105 1.1359,-14.57733 1.9921,-26.68271 2.56,-36.3379 0.7572,-9.84416 1.2925,-17.60927 1.6711,-23.28884 0.3786,-5.67932 0.5689,-9.9601 0.5689,-12.8 0,-3.97539 -0.4401,-7.55483 -1.3867,-10.77326 -0.7572,-3.21833 -2.2793,-5.97709 -4.551,-8.2489 -2.0825,-2.27157 -5.0316,-3.98393 -8.8178,-5.12 -3.5969,-1.13572 -8.318,-1.70655 -14.1867,-1.70667 z m -267.1289,34.95106 c 4.922,1.1e-4 8.537,1.52212 10.8089,4.55111 2.461,3.02911 3.6977,6.41832 3.6978,10.20439 -10e-5,7.00473 -3.7102,12.39165 -11.0934,16.17784 -7.194,3.78629 -16.6359,5.78411 -28.3733,5.97333 0.5679,-3.97551 1.3289,-8.12567 2.2755,-12.48006 1.1359,-4.35405 2.6224,-8.34946 4.5156,-11.94667 2.0824,-3.59674 4.5557,-6.51025 7.3955,-8.78217 3.029,-2.46089 6.6083,-3.69766 10.7734,-3.69777 z m 156.5511,0 c 4.7328,1.1e-4 8.633,1.04664 11.6621,3.12889 3.0291,2.08259 5.3718,4.80575 7.0757,8.21328 1.7036,3.40787 2.8452,7.4034 3.4133,11.94667 0.5679,4.35439 0.8532,8.88513 0.8533,13.61783 -1e-4,17.03834 -2.7588,29.52442 -8.2488,37.47555 -5.4903,7.95125 -12.3041,11.94667 -20.4445,11.94667 -4.5437,0 -8.3133,-1.14154 -11.3422,-3.41333 -2.8398,-2.2718 -5.123,-5.31593 -6.8267,-9.10222 -1.704,-3.78631 -2.9405,-8.03158 -3.6978,-12.7644 -0.568,-4.73281 -0.8534,-9.5489 -0.8533,-14.47117 -10e-5,-14.19844 2.2831,-25.48348 6.8267,-33.81338 4.7328,-8.51888 11.9271,-12.76428 21.5822,-12.76439 z"
       style="color:#000000;font-style:normal;font-variant:normal;font-weight:normal;font-stretch:normal;font-size:249.584px;line-height:125%;font-family:'Poetsen One';-inkscape-font-specification:'Poetsen One';text-align:start;letter-spacing:0px;word-spacing:0px;writing-mode:lr-tb;text-anchor:start;display:inline;overflow:visible;visibility:visible;fill:#ffeb00;fill-opacity:1;fill-rule:nonzero;stroke:none;stroke-width:3.53738;marker:none;enable-background:accumulate"
       inkscape:connector-curvature="0" />
    <text
       id="text4266"
       y="1077.2223"
       x="1615.8362"
       style="font-style:normal;font-variant:normal;font-weight:normal;font-stretch:normal;font-size:13.6533px;line-height:0%;font-family:Days;-inkscape-font-specification:Days;text-align:start;letter-spacing:0px;word-spacing:0px;writing-mode:lr-tb;text-anchor:start;fill:#000000;fill-opacity:1;stroke:none;stroke-width:1.13778"
       xml:space="preserve"
       transform="skewX(-5.1099359)"><tspan
         y="1077.2223"
         x="1615.8362"
         id="tspan4268"
         sodipodi:role="line"
         style="font-size:87.1876px;line-height:1.25;stroke-width:1.13778">Grupo de Teatro</tspan></text>
  </g>
</svg>
