<?xml version="1.0" encoding="UTF-8"?>
<!-- Generator: Adobe Illustrator 19.0.0, SVG Export Plug-In . SVG Version: 6.00 Build 0)  -->
<svg enable-background="new 0 0 330 330" version="1.1" viewBox="0 0 330 330" xml:space="preserve" xmlns="http://www.w3.org/2000/svg">
<g id="XMLID_228_" fill="#fff">
	<path id="XMLID_229_" d="m236.95 152.28-108-67.501c-4.624-2.89-10.453-3.044-15.222-0.4s-7.728 7.667-7.728 13.12v135c0 5.453 2.959 10.476 7.728 13.12 2.266 1.256 4.77 1.88 7.271 1.88 2.763 0 5.523-0.763 7.95-2.28l108-67.499c4.386-2.741 7.05-7.548 7.05-12.72 1e-3 -5.172-2.663-9.979-7.049-12.72z"/>
	<path id="XMLID_230_" d="M165,0C74.019,0,0,74.019,0,165s74.019,165,165,165s165-74.019,165-165S255.981,0,165,0z M165,300   c-74.44,0-135-60.561-135-135S90.56,30,165,30s135,60.561,135,135S239.439,300,165,300z"/>
</g>















</svg>
