<?xml version="1.0" encoding="UTF-8"?>
<!-- Generator: Adobe Illustrator 19.0.0, SVG Export Plug-In . SVG Version: 6.00 Build 0)  -->
<svg enable-background="new 0 0 330 330" version="1.1" viewBox="0 0 330 330" xml:space="preserve" xmlns="http://www.w3.org/2000/svg">
<g id="XMLID_92_" fill="#fff">
	<path id="XMLID_93_" d="M165,0C74.019,0,0,74.019,0,165s74.019,165,165,165s165-74.019,165-165S255.981,0,165,0z M165,300   c-74.44,0-135-60.561-135-135S90.56,30,165,30s135,60.561,135,135S239.439,300,165,300z"/>
	<path id="XMLID_104_" d="m228.24 83.642c-5.606-2.322-12.058-1.039-16.347 3.252l-41.893 41.893v-31.287c0-6.067-3.655-11.536-9.26-13.858-5.606-2.322-12.058-1.039-16.347 3.252l-67.5 67.5c-5.858 5.857-5.858 15.355 0 21.213l67.5 67.5c2.87 2.87 6.706 4.394 10.61 4.394 1.932 0 3.881-0.373 5.737-1.142 5.605-2.322 9.26-7.791 9.26-13.858v-31.287l41.894 41.893c2.87 2.87 6.706 4.394 10.61 4.394 1.932 0 3.881-0.373 5.737-1.142 5.605-2.322 9.26-7.791 9.26-13.858v-135c-1e-3 -6.068-3.656-11.537-9.261-13.859z"/>
</g>















</svg>
